<?xml version="1.0" encoding="UTF-8"?>
<svg version="1.1" xmlns="http://www.w3.org/2000/svg" width="508" height="507">
<path d="M0 0 C0.92377441 0.18723633 1.84754883 0.37447266 2.79931641 0.56738281 C23.47872602 4.81702901 43.03070323 11.78679445 62 21 C62.72106934 21.34756348 63.44213867 21.69512695 64.18505859 22.05322266 C87.47862784 33.42212476 108.38967705 49.06011798 127 67 C127.55606934 67.53415527 128.11213867 68.06831055 128.68505859 68.61865234 C135.99937596 75.68111373 142.80711009 82.91539131 149 91 C149.51143555 91.65677734 150.02287109 92.31355469 150.54980469 92.99023438 C183.02388719 134.85238112 202.6305839 186.83093144 204 240 C204.02046387 240.64533691 204.04092773 241.29067383 204.06201172 241.95556641 C206.02388898 310.49155964 180.25239957 375.38283534 133.61328125 425.26171875 C132.75089844 426.16535156 131.88851563 427.06898438 131 428 C130.16855469 428.87269531 129.33710938 429.74539063 128.48046875 430.64453125 C123.17490021 436.0837834 117.619256 441.0331015 111.63574219 445.71484375 C110.47748576 446.62485298 109.32504056 447.54228129 108.17675781 448.46484375 C97.03984398 457.41006648 85.40635961 464.93824402 73 472 C72.3591748 472.37463379 71.71834961 472.74926758 71.05810547 473.13525391 C34.89599334 494.26535014 -8.00911744 503.48800101 -49.5625 503.3125 C-50.48442139 503.31034485 -51.40634277 503.3081897 -52.35620117 503.30596924 C-90.79969718 503.16210135 -127.39463283 494.86044247 -162 478 C-162.80179688 477.60941406 -163.60359375 477.21882813 -164.4296875 476.81640625 C-185.80070498 466.26922125 -205.01940137 452.71801041 -222.3828125 436.4296875 C-224.48061379 434.48217645 -226.60309773 432.62911965 -228.8125 430.8125 C-231.9168954 428.18685473 -234.52003031 425.25973241 -237.14453125 422.16015625 C-238.37966556 420.72219988 -239.64850174 419.31251018 -240.94921875 417.93359375 C-252.73521919 405.40688349 -262.69995375 391.0391373 -271 376 C-271.46116211 375.17580566 -271.92232422 374.35161133 -272.39746094 373.50244141 C-287.42948231 346.44578095 -297.14912184 317.54840519 -302 287 C-302.11859375 286.28360352 -302.2371875 285.56720703 -302.359375 284.82910156 C-306.39628633 259.34609879 -305.38281918 231.31758777 -301 206 C-300.8443457 205.07751465 -300.68869141 204.1550293 -300.52832031 203.20458984 C-292.48041667 157.36687915 -271.05083825 113.29058964 -239.1796875 79.33203125 C-237.29254723 77.31299408 -235.51702498 75.24806733 -233.75 73.125 C-199.23436899 33.59773169 -146.82513468 8.6294362 -96 -1 C-95.19062988 -1.16371094 -94.38125977 -1.32742188 -93.54736328 -1.49609375 C-63.79123491 -7.31154545 -29.57036555 -6.29724999 0 0 Z " fill="#FEFEFE" transform="translate(304,4)"/>
<path d="M0 0 C0.92377441 0.18723633 1.84754883 0.37447266 2.79931641 0.56738281 C23.47872602 4.81702901 43.03070323 11.78679445 62 21 C62.72106934 21.34756348 63.44213867 21.69512695 64.18505859 22.05322266 C87.47862784 33.42212476 108.38967705 49.06011798 127 67 C127.55606934 67.53415527 128.11213867 68.06831055 128.68505859 68.61865234 C135.99937596 75.68111373 142.80711009 82.91539131 149 91 C149.51143555 91.65677734 150.02287109 92.31355469 150.54980469 92.99023438 C183.02388719 134.85238112 202.6305839 186.83093144 204 240 C204.02046387 240.64533691 204.04092773 241.29067383 204.06201172 241.95556641 C206.02388898 310.49155964 180.25239957 375.38283534 133.61328125 425.26171875 C132.75089844 426.16535156 131.88851563 427.06898438 131 428 C130.16855469 428.87269531 129.33710938 429.74539063 128.48046875 430.64453125 C123.17490021 436.0837834 117.619256 441.0331015 111.63574219 445.71484375 C110.47748576 446.62485298 109.32504056 447.54228129 108.17675781 448.46484375 C97.03984398 457.41006648 85.40635961 464.93824402 73 472 C72.3591748 472.37463379 71.71834961 472.74926758 71.05810547 473.13525391 C34.89599334 494.26535014 -8.00911744 503.48800101 -49.5625 503.3125 C-50.48442139 503.31034485 -51.40634277 503.3081897 -52.35620117 503.30596924 C-90.79969718 503.16210135 -127.39463283 494.86044247 -162 478 C-162.80179688 477.60941406 -163.60359375 477.21882813 -164.4296875 476.81640625 C-185.80070498 466.26922125 -205.01940137 452.71801041 -222.3828125 436.4296875 C-224.48061379 434.48217645 -226.60309773 432.62911965 -228.8125 430.8125 C-231.9168954 428.18685473 -234.52003031 425.25973241 -237.14453125 422.16015625 C-238.37966556 420.72219988 -239.64850174 419.31251018 -240.94921875 417.93359375 C-252.73521919 405.40688349 -262.69995375 391.0391373 -271 376 C-271.46116211 375.17580566 -271.92232422 374.35161133 -272.39746094 373.50244141 C-287.42948231 346.44578095 -297.14912184 317.54840519 -302 287 C-302.11859375 286.28360352 -302.2371875 285.56720703 -302.359375 284.82910156 C-306.39628633 259.34609879 -305.38281918 231.31758777 -301 206 C-300.8443457 205.07751465 -300.68869141 204.1550293 -300.52832031 203.20458984 C-292.48041667 157.36687915 -271.05083825 113.29058964 -239.1796875 79.33203125 C-237.29254723 77.31299408 -235.51702498 75.24806733 -233.75 73.125 C-199.23436899 33.59773169 -146.82513468 8.6294362 -96 -1 C-95.19062988 -1.16371094 -94.38125977 -1.32742188 -93.54736328 -1.49609375 C-63.79123491 -7.31154545 -29.57036555 -6.29724999 0 0 Z M-123 35 C-123.68626465 35.23299805 -124.3725293 35.46599609 -125.07958984 35.70605469 C-147.88829577 43.50136561 -169.15126782 54.96976098 -188 70 C-189.34578125 71.05767578 -189.34578125 71.05767578 -190.71875 72.13671875 C-236.8917694 109.08840238 -267.4452456 162.14222536 -275 221 C-275.0942627 221.69706055 -275.18852539 222.39412109 -275.28564453 223.11230469 C-276.29191907 231.58373218 -276.24271941 240.10628682 -276.25 248.625 C-276.25100708 249.44303101 -276.25201416 250.26106201 -276.25305176 251.10388184 C-276.24158867 264.91690788 -275.46958825 278.38198479 -273 292 C-272.87141602 292.73379883 -272.74283203 293.46759766 -272.61035156 294.22363281 C-265.44227709 333.38357145 -245.41399018 371.66687575 -218.22265625 400.625 C-216.28109523 402.69963814 -214.44755747 404.82171445 -212.625 407 C-179.04564186 445.32088787 -127.63665107 467.35879993 -78 474 C-76.93265625 474.14356934 -76.93265625 474.14356934 -75.84375 474.29003906 C-67.71265934 475.24322154 -59.55032003 475.24158378 -51.375 475.25 C-50.21997986 475.25200912 -50.21997986 475.25200912 -49.04162598 475.25405884 C-35.51075718 475.24897837 -22.35453527 474.27670692 -9 472 C-8.27490234 471.88253418 -7.54980469 471.76506836 -6.80273438 471.64404297 C10.24448189 468.8368911 26.16925513 462.724085 42 456 C42.73895508 455.68691895 43.47791016 455.37383789 44.23925781 455.05126953 C76.59446307 441.12895 106.6721899 416.99998215 128 389 C128.41137207 388.47567383 128.82274414 387.95134766 129.24658203 387.41113281 C149.88110919 361.07405597 164.08534189 329.65635561 171 297 C171.33 295.80503906 171.66 294.61007812 172 293.37890625 C179.41714411 264.00900674 176.99550115 231.39325736 171 202 C170.86368164 201.31905273 170.72736328 200.63810547 170.58691406 199.93652344 C162.59945295 160.84777032 142.51749765 123.06678111 114.55371094 94.58447266 C112.89879104 92.89678722 111.26626111 91.18892741 109.6328125 89.48046875 C101.96495463 81.54723874 93.90684245 74.50727046 85 68 C84.46020508 67.60474121 83.92041016 67.20948242 83.36425781 66.80224609 C56.14569913 47.05431309 25.17883375 32.93486822 -8 27 C-9.02791656 26.81307587 -9.02791656 26.81307587 -10.07659912 26.62237549 C-23.3808669 24.25362834 -36.37367509 23.43545645 -49.875 23.5 C-51.33569412 23.50214508 -51.33569412 23.50214508 -52.82589722 23.5043335 C-77.04723281 23.59184029 -100.05926383 26.98036382 -123 35 Z " fill="#FEFEFE" transform="translate(304,4)"/>
<path d="M0 0 C1.22662354 0.28085449 1.22662354 0.28085449 2.47802734 0.56738281 C7.73121957 1.8167557 12.86299634 3.34238362 18 5 C18.75845215 5.23525391 19.5169043 5.47050781 20.29833984 5.71289062 C41.58494782 12.36248834 61.8202478 22.06584818 80 35 C81.07121094 35.75925781 82.14242188 36.51851562 83.24609375 37.30078125 C86.2159609 39.47507931 89.11790536 41.71081584 92 44 C93.48113281 45.17369141 93.48113281 45.17369141 94.9921875 46.37109375 C110.64993483 59.06403133 124.36571676 73.56016415 136 90 C136.43715332 90.60312012 136.87430664 91.20624023 137.32470703 91.82763672 C150.14718204 109.57842778 160.47911754 130.13732979 167.0625 151 C167.40684082 152.08579346 167.75118164 153.17158691 168.10595703 154.2902832 C186.19144053 212.59476352 179.23493607 274.30820568 151.3359375 328.1953125 C126.12367905 375.81052726 84.33097996 411.29542675 35 432 C34.2786084 432.30663574 33.5572168 432.61327148 32.81396484 432.92919922 C15.71091198 440.10677902 -2.66485895 443.65095611 -21 446 C-21.7211499 446.09571289 -22.4422998 446.19142578 -23.18530273 446.29003906 C-31.3271422 447.2451839 -39.50116093 447.24356308 -47.6875 447.25 C-48.84842667 447.25101212 -48.84842667 447.25101212 -50.0328064 447.25204468 C-105.58447991 447.1754513 -158.62673644 426.64275502 -199.63671875 389.140625 C-201.70029213 387.27147093 -203.80514613 385.47676638 -205.9375 383.6875 C-233.50705419 359.48143142 -252.7371211 324.41872783 -264 290 C-264.33185303 289.00637451 -264.33185303 289.00637451 -264.67041016 287.99267578 C-265.88080647 284.35359511 -266.98084315 280.69694151 -268 277 C-268.39445312 275.60007812 -268.39445312 275.60007812 -268.796875 274.171875 C-276.38392722 244.59785511 -276.72303299 210.94108315 -271 181 C-270.86078125 180.20609863 -270.7215625 179.41219727 -270.578125 178.59423828 C-264.86189673 146.03687798 -250.62869271 114.51473302 -231 88 C-230.34112793 87.10571289 -230.34112793 87.10571289 -229.66894531 86.19335938 C-198.46611378 44.23491876 -152.19405716 12.65731922 -101 1 C-100.01241699 0.77006348 -99.02483398 0.54012695 -98.00732422 0.30322266 C-66.59411796 -6.71073133 -31.4110582 -7.2564457 0 0 Z M-203 67 C-203.7321875 67.68964844 -204.464375 68.37929687 -205.21875 69.08984375 C-210.62960459 74.339661 -215.36660326 80.05994032 -220 86 C-220.42684082 86.5451123 -220.85368164 87.09022461 -221.29345703 87.65185547 C-240.0040631 111.73962291 -253.33398743 139.54983861 -260.5625 169.125 C-260.76020996 169.91600098 -260.95791992 170.70700195 -261.16162109 171.52197266 C-265.09846701 188.04504154 -266.55058023 204.16565432 -266.4375 221.125 C-266.43412628 222.11067963 -266.43075256 223.09635925 -266.42727661 224.11190796 C-266.35167489 239.39010381 -265.69513505 254.10423234 -262 269 C-261.75330566 269.99644531 -261.50661133 270.99289062 -261.25244141 272.01953125 C-254.5285628 298.27113834 -244.00690016 323.98651854 -228 346 C-227.28199219 347.00160156 -226.56398437 348.00320313 -225.82421875 349.03515625 C-221.54731891 354.87803668 -217.03125557 360.36777824 -212.125 365.69140625 C-210.16362106 367.82224256 -208.26305255 369.99179604 -206.375 372.1875 C-199.86374206 379.62044286 -192.73469617 385.85268592 -185 392 C-184.04480469 392.78375 -183.08960938 393.5675 -182.10546875 394.375 C-138.40423374 429.38086733 -81.22487608 444.52092162 -25.89941406 439.17578125 C21.48729712 433.91844258 67.19248858 414.1537177 101.41552734 380.55371094 C103.10321278 378.89879104 104.81107259 377.26626111 106.51953125 375.6328125 C145.81653629 337.66150239 169.10568947 282.80053226 170.43270874 228.28585815 C171.34097862 175.01893004 154.78581678 122.85393086 120 82 C119.37480469 81.26394531 118.74960937 80.52789062 118.10546875 79.76953125 C115.79059322 77.12712075 113.41483136 74.55062095 111 72 C110.4107373 71.37673828 109.82147461 70.75347656 109.21435547 70.11132812 C75.83729139 35.10308528 32.69670985 12.94504751 -15 5 C-15.74491699 4.87012695 -16.48983398 4.74025391 -17.25732422 4.60644531 C-85.82960119 -6.87318089 -153.55599033 20.40318752 -203 67 Z " fill="#EEEEEE" transform="translate(302,32)"/>
<path d="M0 0 C1.22662354 0.28085449 1.22662354 0.28085449 2.47802734 0.56738281 C7.73121957 1.8167557 12.86299634 3.34238362 18 5 C18.75845215 5.23525391 19.5169043 5.47050781 20.29833984 5.71289062 C41.58494782 12.36248834 61.8202478 22.06584818 80 35 C81.07121094 35.75925781 82.14242188 36.51851562 83.24609375 37.30078125 C86.2159609 39.47507931 89.11790536 41.71081584 92 44 C93.48113281 45.17369141 93.48113281 45.17369141 94.9921875 46.37109375 C110.64993483 59.06403133 124.36571676 73.56016415 136 90 C136.43715332 90.60312012 136.87430664 91.20624023 137.32470703 91.82763672 C150.14718204 109.57842778 160.47911754 130.13732979 167.0625 151 C167.40684082 152.08579346 167.75118164 153.17158691 168.10595703 154.2902832 C186.19144053 212.59476352 179.23493607 274.30820568 151.3359375 328.1953125 C126.12367905 375.81052726 84.33097996 411.29542675 35 432 C34.2786084 432.30663574 33.5572168 432.61327148 32.81396484 432.92919922 C15.71091198 440.10677902 -2.66485895 443.65095611 -21 446 C-21.7211499 446.09571289 -22.4422998 446.19142578 -23.18530273 446.29003906 C-31.3271422 447.2451839 -39.50116093 447.24356308 -47.6875 447.25 C-48.84842667 447.25101212 -48.84842667 447.25101212 -50.0328064 447.25204468 C-105.58447991 447.1754513 -158.62673644 426.64275502 -199.63671875 389.140625 C-201.70029213 387.27147093 -203.80514613 385.47676638 -205.9375 383.6875 C-233.50705419 359.48143142 -252.7371211 324.41872783 -264 290 C-264.33185303 289.00637451 -264.33185303 289.00637451 -264.67041016 287.99267578 C-265.88080647 284.35359511 -266.98084315 280.69694151 -268 277 C-268.39445312 275.60007812 -268.39445312 275.60007812 -268.796875 274.171875 C-276.38392722 244.59785511 -276.72303299 210.94108315 -271 181 C-270.86078125 180.20609863 -270.7215625 179.41219727 -270.578125 178.59423828 C-264.86189673 146.03687798 -250.62869271 114.51473302 -231 88 C-230.34112793 87.10571289 -230.34112793 87.10571289 -229.66894531 86.19335938 C-198.46611378 44.23491876 -152.19405716 12.65731922 -101 1 C-100.01241699 0.77006348 -99.02483398 0.54012695 -98.00732422 0.30322266 C-66.59411796 -6.71073133 -31.4110582 -7.2564457 0 0 Z M-217.16015625 73.72265625 C-256.50284983 118.60770016 -275.1305832 176.77234746 -272 236 C-271.00769162 250.57308701 -269.06679625 264.95529434 -265 279 C-264.75765625 279.84481934 -264.5153125 280.68963867 -264.265625 281.56005859 C-254.61084217 314.67146759 -238.53647991 345.31677916 -215.06640625 370.74609375 C-213.23259442 372.7463006 -211.48962633 374.79343238 -209.75 376.875 C-178.40655903 412.6960754 -130.31797862 435.44250808 -84 443 C-82.94449951 443.17789063 -82.94449951 443.17789063 -81.86767578 443.359375 C-55.89266858 447.51438686 -27.62513509 446.41796202 -2 441 C-1.11119141 440.81808105 -0.22238281 440.63616211 0.69335938 440.44873047 C36.09247359 433.01969656 69.80448226 415.6833004 97 392 C97.9075 391.22140625 98.815 390.4428125 99.75 389.640625 C102.21660564 387.47443928 104.61776506 385.25862841 107 383 C107.49564453 382.53158691 107.99128906 382.06317383 108.50195312 381.58056641 C116.84733145 373.63826073 124.13206378 365.23894802 131 356 C131.63566895 355.163479 131.63566895 355.163479 132.28417969 354.31005859 C139.54095531 344.75242214 145.48628802 334.64962023 151 324 C151.39074707 323.24589844 151.78149414 322.49179687 152.18408203 321.71484375 C168.29050031 290.19141326 175.65250974 257.01480154 175.4375 221.75 C175.43512329 220.72051239 175.43274658 219.69102478 175.43029785 218.63034058 C175.37523833 203.38077839 174.62898121 188.869894 171 174 C170.6824807 172.5539136 170.36728181 171.10731526 170.0546875 169.66015625 C169.1732354 165.73173232 168.11929728 161.86810157 167 158 C166.80744629 157.32936523 166.61489258 156.65873047 166.41650391 155.96777344 C158.64697167 129.46140731 145.37059995 104.45960844 128 83 C127.22011719 82.01773438 126.44023437 81.03546875 125.63671875 80.0234375 C113.81982723 65.42569702 100.30374123 51.9136269 85 41 C84.36787598 40.53996582 83.73575195 40.07993164 83.08447266 39.60595703 C64.8232111 26.42097886 44.53352873 15.65500316 23 9 C21.79214844 8.56558594 20.58429688 8.13117187 19.33984375 7.68359375 C12.34060436 5.17584488 5.40315539 3.29463279 -1.875 1.8125 C-2.62821533 1.65765137 -3.38143066 1.50280273 -4.1574707 1.34326172 C-18.29959049 -1.37484099 -32.3245039 -2.35199491 -46.70092773 -2.31567383 C-49.30039551 -2.31251471 -51.89871837 -2.33609193 -54.49804688 -2.36132812 C-116.64093957 -2.5932824 -176.14601025 27.93088893 -217.16015625 73.72265625 Z " fill="#222222" transform="translate(302,32)"/>
<path d="M0 0 C2.31 0 4.62 0 7 0 C7.39188326 6.78937742 5.91417806 13.07143996 4.5 19.6875 C4.02775064 21.91983549 3.55885541 24.15288389 3.09375 26.38671875 C2.88427734 27.36858154 2.67480469 28.35044434 2.45898438 29.36206055 C1.88572124 32.21053693 1.88572124 32.21053693 2 36 C3.65 35.67 5.3 35.34 7 35 C6.95359375 34.29875 6.9071875 33.5975 6.859375 32.875 C6.61111056 26.34919191 6.91935787 21.28927807 11 16 C14.1390909 12.88371121 16.81110077 11.20980575 21.1875 10.4375 C24.74592791 11.14918558 25.95370688 12.00926391 28 15 C28.80363166 19.10745072 28.2035299 20.66926392 26 24.25 C22.84873501 27.71911593 19.51644244 28.23450128 15 29 C16.08784968 32.24983135 16.08784968 32.24983135 18 35 C21.50284858 35.39805098 23.46776571 35.30100446 26.5625 33.55078125 C29.96067529 29.99467794 30.41094883 26.61713743 31.25 21.875 C31.56590974 20.24704578 31.88353689 18.61942361 32.203125 16.9921875 C32.33364258 16.27401855 32.46416016 15.55584961 32.59863281 14.81591797 C33 13 33 13 34 11 C36.64 11 39.28 11 42 11 C42 11.99 42 12.98 42 14 C42.86625 13.484375 43.7325 12.96875 44.625 12.4375 C48.42663365 10.81828567 50.09096868 10.84505893 54 12 C56 14 56 14 56.265625 15.92578125 C56.21879121 23.07964252 55.23579255 29.96039599 54 37 C57.61406629 35.17604899 57.61406629 35.17604899 60.07421875 32.08984375 C60.27660156 31.37957031 60.47898437 30.66929687 60.6875 29.9375 C61.0278125 28.761875 61.0278125 28.761875 61.375 27.5625 C62.39032158 23.39968153 63.25139683 19.21859906 64 15 C63.01 15 62.02 15 61 15 C61.33 13.68 61.66 12.36 62 11 C63.32 11 64.64 11 66 11 C66.33 8.36 66.66 5.72 67 3 C69.64 2.67 72.28 2.34 75 2 C74.67 4.97 74.34 7.94 74 11 C75.98 11.495 75.98 11.495 78 12 C77.67 12.66 77.34 13.32 77 14 C74.9375 14.625 74.9375 14.625 73 15 C71.19889833 22.32901118 69.6377902 29.47407567 69 37 C72.53600465 35.08864614 74.78972846 33.37357234 77 30 C77.99 30.33 78.98 30.66 80 31 C79.06725891 32.12894876 78.12859878 33.25300876 77.1875 34.375 C76.66542969 35.00148438 76.14335937 35.62796875 75.60546875 36.2734375 C74 38 74 38 71 40 C68.66800612 40.07905064 66.33167378 40.08798769 64 40 C63.01 38.02 63.01 38.02 62 36 C60.4840625 37.0209375 60.4840625 37.0209375 58.9375 38.0625 C55.88700881 39.81095227 54.90946784 39.99851587 51.1875 39.9375 C48 39 48 39 46 36 C45.20254459 30.05426629 46.45286983 24.70504249 48 19 C48 17.68 48 16.36 48 15 C44.01825847 16.29137563 42.13540756 17.38668094 40 21 C39.34490417 23.71276861 38.80991069 26.3171263 38.375 29.0625 C37.07888788 36.76333635 37.07888788 36.76333635 36 40 C33.36 40 30.72 40 28 40 C28 38.68 28 37.36 28 36 C27.195625 36.66 26.39125 37.32 25.5625 38 C21.57396467 40.65587305 17.65450309 40.77863435 13 40 C12.113125 39.443125 11.22625 38.88625 10.3125 38.3125 C9.549375 37.879375 8.78625 37.44625 8 37 C5.98276656 37.96476382 3.98387708 38.96838392 2 40 C-1.875 39.6875 -1.875 39.6875 -5 39 C-5.495 37.02 -5.495 37.02 -6 35 C-6.639375 35.639375 -7.27875 36.27875 -7.9375 36.9375 C-11.87347478 39.58825853 -15.27613574 40.26439539 -20 40 C-22.5625 38.5625 -22.5625 38.5625 -24 37 C-24.680625 37.515625 -25.36125 38.03125 -26.0625 38.5625 C-29.86042106 40.42105712 -31.96134968 40.06681329 -36 39 C-38.7175219 34.92371716 -38.40236274 31.78192645 -38 27 C-37.44886537 24.29183848 -36.72416451 21.67035664 -36 19 C-36 17.68 -36 16.36 -36 15 C-39.98174153 16.29137563 -41.86459244 17.38668094 -44 21 C-44.65509583 23.71276861 -45.19008931 26.3171263 -45.625 29.0625 C-46.92111212 36.76333635 -46.92111212 36.76333635 -48 40 C-50.64 40 -53.28 40 -56 40 C-56 38.68 -56 37.36 -56 36 C-56.804375 36.66 -57.60875 37.32 -58.4375 38 C-62.43488504 40.65229339 -66.34152473 40.8750727 -71 40 C-73.87029869 38.20606332 -75.49131638 37.01736724 -77 34 C-77.76730184 27.23264938 -77.17788986 21.52559626 -73 16 C-69.86595863 12.88113558 -67.18599546 11.20929332 -62.8125 10.4375 C-59.25407209 11.14918558 -58.04629312 12.00926391 -56 15 C-55.19636834 19.10745072 -55.7964701 20.66926392 -58 24.25 C-61.15126499 27.71911593 -64.48355756 28.23450128 -69 29 C-67.91215032 32.24983135 -67.91215032 32.24983135 -66 35 C-62.49715142 35.39805098 -60.53223429 35.30100446 -57.4375 33.55078125 C-54.03932471 29.99467794 -53.58905117 26.61713743 -52.75 21.875 C-52.43409026 20.24704578 -52.11646311 18.61942361 -51.796875 16.9921875 C-51.66635742 16.27401855 -51.53583984 15.55584961 -51.40136719 14.81591797 C-51 13 -51 13 -50 11 C-47.36 11 -44.72 11 -42 11 C-42 11.99 -42 12.98 -42 14 C-41.13375 13.484375 -40.2675 12.96875 -39.375 12.4375 C-35.57336635 10.81828567 -33.90903132 10.84505893 -30 12 C-28 14 -28 14 -27.734375 15.92578125 C-27.78120879 23.07964252 -28.76420745 29.96039599 -30 37 C-27.94657103 36.33608505 -27.94657103 36.33608505 -26 35 C-25.48152481 32.87834487 -25.48152481 32.87834487 -25.5625 30.4375 C-25.14012352 23.94228841 -22.94016898 18.9961722 -18.359375 14.328125 C-15.20889104 11.80206129 -13.34953741 11.03495374 -9.25 10.625 C-6 11 -6 11 -3 12 C-2.01 8.04 -1.02 4.08 0 0 Z " fill="#0F0F0F" transform="translate(380,227)"/>
<path d="M0 0 C1.01175293 0.17772949 2.02350586 0.35545898 3.06591797 0.53857422 C46.08272826 8.37852355 85.82991848 26.86318188 117.40429688 57.45996094 C118.53585615 58.55204722 119.67610514 59.63516201 120.82226562 60.71191406 C159.92654924 97.47780081 185.20225009 151.20925114 187.1640625 205.06005859 C187.69516722 222.89944647 187.30971866 240.4171196 184 258 C183.86078125 258.80211914 183.7215625 259.60423828 183.578125 260.43066406 C181.3679239 273.11373934 177.6001633 284.99241944 173 297 C172.71753418 297.74523926 172.43506836 298.49047852 172.14404297 299.25830078 C161.57730412 326.87015899 145.42410061 350.75690374 125 372 C124.48034668 372.54688477 123.96069336 373.09376953 123.42529297 373.65722656 C110.45289516 387.26486036 95.86849802 397.97555512 80 408 C79.35369629 408.40992188 78.70739258 408.81984375 78.04150391 409.2421875 C37.06634263 434.80742814 -16.51182579 444.54642516 -64 437 C-64.94359375 436.8546582 -65.8871875 436.70931641 -66.859375 436.55957031 C-120.84983474 427.97796488 -171.02550723 400.19780868 -205 357 C-205.79148438 356.02546875 -206.58296875 355.0509375 -207.3984375 354.046875 C-218.16344864 340.53118278 -226.72081265 325.64365036 -234 310 C-234.52078125 308.88753906 -235.0415625 307.77507812 -235.578125 306.62890625 C-247.96008769 278.96499488 -253.17940654 250.57550582 -253.24023438 220.41503906 C-253.24988541 217.53420521 -253.28096346 214.65410318 -253.3125 211.7734375 C-253.38235155 199.56054593 -252.35268014 187.98162465 -250 176 C-249.80647949 174.97890137 -249.61295898 173.95780273 -249.41357422 172.90576172 C-239.43944635 123.29784635 -210.39983907 75.7302034 -170 45 C-169.3596582 44.51031738 -168.71931641 44.02063477 -168.05957031 43.51611328 C-157.22997191 35.2901204 -146.11722969 28.17435027 -134 22 C-133.29520508 21.64067383 -132.59041016 21.28134766 -131.86425781 20.91113281 C-91.95878465 0.8381433 -44.2951277 -7.81373321 0 0 Z M-188 64 C-188.7321875 64.68964844 -189.464375 65.37929687 -190.21875 66.08984375 C-195.62960459 71.339661 -200.36660326 77.05994032 -205 83 C-205.42684082 83.5451123 -205.85368164 84.09022461 -206.29345703 84.65185547 C-225.0040631 108.73962291 -238.33398743 136.54983861 -245.5625 166.125 C-245.76020996 166.91600098 -245.95791992 167.70700195 -246.16162109 168.52197266 C-250.09846701 185.04504154 -251.55058023 201.16565432 -251.4375 218.125 C-251.43412628 219.11067963 -251.43075256 220.09635925 -251.42727661 221.11190796 C-251.35167489 236.39010381 -250.69513505 251.10423234 -247 266 C-246.75330566 266.99644531 -246.50661133 267.99289062 -246.25244141 269.01953125 C-239.5285628 295.27113834 -229.00690016 320.98651854 -213 343 C-212.28199219 344.00160156 -211.56398437 345.00320313 -210.82421875 346.03515625 C-206.54731891 351.87803668 -202.03125557 357.36777824 -197.125 362.69140625 C-195.16362106 364.82224256 -193.26305255 366.99179604 -191.375 369.1875 C-184.86374206 376.62044286 -177.73469617 382.85268592 -170 389 C-169.04480469 389.78375 -168.08960938 390.5675 -167.10546875 391.375 C-123.40423374 426.38086733 -66.22487608 441.52092162 -10.89941406 436.17578125 C36.48729712 430.91844258 82.19248858 411.1537177 116.41552734 377.55371094 C118.10321278 375.89879104 119.81107259 374.26626111 121.51953125 372.6328125 C160.81653629 334.66150239 184.10568947 279.80053226 185.43270874 225.28585815 C186.34097862 172.01893004 169.78581678 119.85393086 135 79 C134.37480469 78.26394531 133.74960937 77.52789062 133.10546875 76.76953125 C130.79059322 74.12712075 128.41483136 71.55062095 126 69 C125.4107373 68.37673828 124.82147461 67.75347656 124.21435547 67.11132812 C90.83729139 32.10308528 47.69670985 9.94504751 0 2 C-0.74491699 1.87012695 -1.48983398 1.74025391 -2.25732422 1.60644531 C-70.82960119 -9.87318089 -138.55599033 17.40318752 -188 64 Z " fill="#1D1D1D" transform="translate(287,35)"/>
<path d="M0 0 C2.31 0 4.62 0 7 0 C7.39188326 6.78937742 5.91417806 13.07143996 4.5 19.6875 C4.02775064 21.91983549 3.55885541 24.15288389 3.09375 26.38671875 C2.88427734 27.36858154 2.67480469 28.35044434 2.45898438 29.36206055 C1.88572124 32.21053693 1.88572124 32.21053693 2 36 C4.54000854 35.46760662 4.54000854 35.46760662 7 34 C7.86172107 31.13983751 7.86172107 31.13983751 8 27.8125 C8.86536105 20.49332473 10.55911419 16.73506308 16.4375 12.0625 C19.59225776 10.75442971 21.61666008 10.49609831 25 11 C28.02352411 13.06872702 28.85787938 14.27360569 29.5625 17.875 C28.83325251 21.92637494 27.23288822 24.52733965 24 27 C21.30099417 28.04767324 18.8803779 28.51180036 16 29 C17.08784968 32.24983135 17.08784968 32.24983135 19 35 C22.50284858 35.39805098 24.46776571 35.30100446 27.5625 33.55078125 C30.96067529 29.99467794 31.41094883 26.61713743 32.25 21.875 C32.56590974 20.24704578 32.88353689 18.61942361 33.203125 16.9921875 C33.33364258 16.27401855 33.46416016 15.55584961 33.59863281 14.81591797 C34 13 34 13 35 11 C37.41696872 10.94588876 39.83271787 10.90627722 42.25 10.875 C42.93191406 10.85824219 43.61382812 10.84148437 44.31640625 10.82421875 C48.05133729 10.78795728 50.87694471 10.84539214 54 13 C57.13651961 16.6966124 57.46032289 19.9855121 57.2890625 24.65625 C56.69287515 29.49020148 55.0638035 33.40429474 52.375 37.4375 C48.8591951 39.75052954 45.17945986 40.22074612 41 40 C38.71875 39.0078125 38.71875 39.0078125 37 38 C36.95101562 38.556875 36.90203125 39.11375 36.8515625 39.6875 C36.33444423 44.96567265 35.39537537 49.88362365 34 55 C31.36 55 28.72 55 26 55 C26.99 48.73 27.98 42.46 29 36 C27.02 37.32 25.04 38.64 23 40 C19.93382675 40.63010356 17.08476008 40.52594568 14 40 C12.64886795 39.02418241 11.31053056 38.02970259 10 37 C7.63222962 37.74563813 7.63222962 37.74563813 5 39 C2.24570798 39.65346928 -0.13304448 39.86127635 -3 40 C-5 38.6875 -5 38.6875 -6 37 C-6 36.34 -6 35.68 -6 35 C-6.639375 35.639375 -7.27875 36.27875 -7.9375 36.9375 C-11.87347478 39.58825853 -15.27613574 40.26439539 -20 40 C-22.5625 38.5625 -22.5625 38.5625 -24 37 C-24.680625 37.515625 -25.36125 38.03125 -26.0625 38.5625 C-29.86042106 40.42105712 -31.96134968 40.06681329 -36 39 C-38.7175219 34.92371716 -38.40236274 31.78192645 -38 27 C-37.44886537 24.29183848 -36.72416451 21.67035664 -36 19 C-36 17.68 -36 16.36 -36 15 C-39.98174153 16.29137563 -41.86459244 17.38668094 -44 21 C-44.65509583 23.71276861 -45.19008931 26.3171263 -45.625 29.0625 C-46.92111212 36.76333635 -46.92111212 36.76333635 -48 40 C-50.64 40 -53.28 40 -56 40 C-55.19242459 35.54075989 -54.37811136 31.08277672 -53.5625 26.625 C-53.33240234 25.35398438 -53.10230469 24.08296875 -52.86523438 22.7734375 C-52.64287109 21.56171875 -52.42050781 20.35 -52.19140625 19.1015625 C-51.98717041 17.98088379 -51.78293457 16.86020508 -51.57250977 15.70556641 C-51 13 -51 13 -50 11 C-47.36 11 -44.72 11 -42 11 C-42 11.99 -42 12.98 -42 14 C-40.700625 13.2265625 -40.700625 13.2265625 -39.375 12.4375 C-35.57336635 10.81828567 -33.90903132 10.84505893 -30 12 C-28 14 -28 14 -27.734375 15.92578125 C-27.78120879 23.07964252 -28.76420745 29.96039599 -30 37 C-27.94657103 36.33608505 -27.94657103 36.33608505 -26 35 C-25.48152481 32.87834487 -25.48152481 32.87834487 -25.5625 30.4375 C-25.14012352 23.94228841 -22.94016898 18.9961722 -18.359375 14.328125 C-15.20889104 11.80206129 -13.34953741 11.03495374 -9.25 10.625 C-6 11 -6 11 -3 12 C-1.515 6.06 -1.515 6.06 0 0 Z " fill="#0F0F0F" transform="translate(244,227)"/>
<path d="M0 0 C2.64 0 5.28 0 8 0 C7.42085333 6.01326751 6.77662055 12.00892722 6 18 C6.598125 17.21625 7.19625 16.4325 7.8125 15.625 C10 13 10 13 13 11 C17.54054054 11.54054054 17.54054054 11.54054054 19 13 C19.58339847 17.18102234 19.22321789 18.68377466 16.75 22.1875 C14.56422144 24.42295535 12.51056426 26.18145025 10 28 C10.75796875 29.17369141 10.75796875 29.17369141 11.53125 30.37109375 C12.50578125 31.88896484 12.50578125 31.88896484 13.5 33.4375 C14.1496875 34.44683594 14.799375 35.45617187 15.46875 36.49609375 C17 39 17 39 17 40 C11.83405051 40.61290926 11.83405051 40.61290926 9 40 C6.76385711 37.97631724 5.28125697 35.72267106 4 33 C4 32.34 4 31.68 4 31 C3.34 31 2.68 31 2 31 C1.67 33.97 1.34 36.94 1 40 C-1.64 40 -4.28 40 -7 40 C-6.34 34.06 -5.68 28.12 -5 22 C-9.04777199 23.49885195 -9.04777199 23.49885195 -9.984375 26.171875 C-10.36335938 27.44804687 -10.36335938 27.44804687 -10.75 28.75 C-12.81898888 34.32657159 -15.58336194 37.46895276 -21 40 C-24.53581515 40.90712861 -27.52852613 40.84266616 -30.80078125 38.96875 C-33.51436609 36.84451175 -34.90387923 35.2883623 -36 32 C-36.2295082 25.45901639 -36.2295082 25.45901639 -35 23 C-37.19831605 23.81708667 -37.19831605 23.81708667 -37.7890625 26.07421875 C-38.06492187 26.93660156 -38.34078125 27.79898438 -38.625 28.6875 C-40.77949054 34.24927743 -43.56584093 37.46076567 -49 40 C-52.53581515 40.90712861 -55.52852613 40.84266616 -58.80078125 38.96875 C-61.51436609 36.84451175 -62.90387923 35.2883623 -64 32 C-64.59213021 26.17738626 -63.99349729 22.65955105 -60.61328125 17.83203125 C-56.86136607 13.57138181 -52.5551846 10.78673965 -46.8125 10.375 C-42.21676598 11.12839902 -40.71597722 12.26553132 -38 16 C-38 17.32 -38 18.64 -38 20 C-33.85005696 18.06979393 -30.53611126 15.88472234 -27 13 C-23.85805357 10.83314039 -20.77858071 10.52080084 -16.97265625 10.61328125 C-13.52129405 11.28988493 -11.99822308 13.25244327 -10 16 C-10 17.32 -10 18.64 -10 20 C-7.19232788 19.20476339 -5.32301275 18.67335093 -3 17 C-1.69053161 14.19272013 -1.39138588 11.3728961 -1.0625 8.3125 C-0.89524414 7.11657227 -0.89524414 7.11657227 -0.72460938 5.89648438 C-0.45442656 3.93472219 -0.22335417 1.96764391 0 0 Z " fill="#0B0B0B" transform="translate(142,227)"/>
<path d="M0 0 C3.48390172 1.16130057 3.75101514 1.7609745 5.56640625 4.796875 C6.04682373 5.58457275 6.52724121 6.37227051 7.0222168 7.18383789 C7.53051025 8.03067139 8.03880371 8.87750488 8.5625 9.75 C15.45743052 20.94157413 22.99660058 31.06208286 31.9296875 40.7421875 C33.78428866 42.76475254 35.55035161 44.83483984 37.3125 46.9375 C68.25562513 82.29090963 116.36193889 104.5534471 162 112 C163.05550049 112.17789063 163.05550049 112.17789063 164.13232422 112.359375 C190.10733142 116.51438686 218.37486491 115.41796202 244 110 C245.33321289 109.72712158 245.33321289 109.72712158 246.69335938 109.44873047 C282.08825927 102.020581 315.81126171 84.68673241 343 61 C343.91910156 60.20980469 344.83820313 59.41960937 345.78515625 58.60546875 C350.45121534 54.50140727 354.90259087 50.18801993 359.3125 45.8125 C359.80459961 45.32515381 360.29669922 44.83780762 360.80371094 44.33569336 C363.26198891 41.86611969 365.55078283 39.35713905 367.73046875 36.63671875 C368.47941406 35.76660156 369.22835938 34.89648438 370 34 C370.66 34 371.32 34 372 34 C370.40280589 37.81702321 367.85623552 40.58448241 365.0625 43.5625 C364.57523437 44.08626221 364.08796875 44.61002441 363.5859375 45.1496582 C362.06548548 46.77442144 360.53528773 48.38925483 359 50 C358.29979736 50.73524902 358.29979736 50.73524902 357.58544922 51.48535156 C336.06466782 73.91848529 309.50627891 90.03570616 281 102 C280.2786084 102.30663574 279.5572168 102.61327148 278.81396484 102.92919922 C261.71091198 110.10677902 243.33514105 113.65095611 225 116 C224.2788501 116.09571289 223.5577002 116.19142578 222.81469727 116.29003906 C214.6728578 117.2451839 206.49883907 117.24356308 198.3125 117.25 C197.15157333 117.25101212 197.15157333 117.25101212 195.9671936 117.25204468 C140.41552009 117.1754513 87.37326356 96.64275502 46.36328125 59.140625 C44.29970787 57.27147093 42.19485387 55.47676638 40.0625 53.6875 C24.5181339 40.03954656 7.0282197 19.69404879 0 0 Z " fill="#1E1E1E" transform="translate(56,362)"/>
<path d="M0 0 C3.02352411 2.06872702 3.85787938 3.27360569 4.5625 6.875 C3.83325251 10.92637494 2.23288822 13.52733965 -1 16 C-3.69900583 17.04767324 -6.1196221 17.51180036 -9 18 C-7.91215032 21.24983135 -7.91215032 21.24983135 -6 24 C-2.49715142 24.39805098 -0.53223429 24.30100446 2.5625 22.55078125 C5.96067529 18.99467794 6.41094883 15.61713743 7.25 10.875 C7.56590974 9.24704578 7.88353689 7.61942361 8.203125 5.9921875 C8.33364258 5.27401855 8.46416016 4.55584961 8.59863281 3.81591797 C9 2 9 2 10 0 C12.64 0 15.28 0 18 0 C18 0.99 18 1.98 18 3 C18.86625 2.484375 19.7325 1.96875 20.625 1.4375 C24.42663365 -0.18171433 26.09096868 -0.15494107 30 1 C32 3 32 3 32.265625 4.92578125 C32.21879121 12.07964252 31.23579255 18.96039599 30 26 C31.65 25.67 33.3 25.34 35 25 C34.505 26.485 34.505 26.485 34 28 C26.8 29.44 26.8 29.44 23.5 27.625 C19.95788594 21.42630039 22.24028651 14.48894348 24 8 C24 6.68 24 5.36 24 4 C20.01825847 5.29137563 18.13540756 6.38668094 16 10 C15.34490417 12.71276861 14.80991069 15.3171263 14.375 18.0625 C13.07888788 25.76333635 13.07888788 25.76333635 12 29 C9.36 29 6.72 29 4 29 C4 27.68 4 26.36 4 25 C3.195625 25.66 2.39125 26.32 1.5625 27 C-2.43488504 29.65229339 -6.34152473 29.8750727 -11 29 C-13.87029869 27.20606332 -15.49131638 26.01736724 -17 23 C-17.76730184 16.23264938 -17.17788986 10.52559626 -13 5 C-9.16460612 1.18317945 -5.56425067 -1.11285013 0 0 Z " fill="#0B0B0B" transform="translate(320,238)"/>
<path d="M0 0 C-0.33 2.97 -0.66 5.94 -1 9 C0.32 9.33 1.64 9.66 3 10 C2.67 10.66 2.34 11.32 2 12 C-0.0625 12.625 -0.0625 12.625 -2 13 C-3.80110167 20.32901118 -5.3622098 27.47407567 -6 35 C-2.46399535 33.08864614 -0.21027154 31.37357234 2 28 C2.99 28.33 3.98 28.66 5 29 C4.06725891 30.12894876 3.12859878 31.25300876 2.1875 32.375 C1.66542969 33.00148438 1.14335937 33.62796875 0.60546875 34.2734375 C-1 36 -1 36 -4 38 C-6.33199388 38.07905064 -8.66832622 38.08798769 -11 38 C-11.66 36.68 -12.32 35.36 -13 34 C-14.010625 34.680625 -15.02125 35.36125 -16.0625 36.0625 C-19.11299119 37.81095227 -20.09053216 37.99851587 -23.8125 37.9375 C-27 37 -27 37 -29 34 C-29.79745541 28.05426629 -28.54713017 22.70504249 -27 17 C-27 15.68 -27 14.36 -27 13 C-30.98174153 14.29137563 -32.86459244 15.38668094 -35 19 C-35.65509583 21.71276861 -36.19008931 24.3171263 -36.625 27.0625 C-37.92111212 34.76333635 -37.92111212 34.76333635 -39 38 C-41.64 38 -44.28 38 -47 38 C-46.835 37.071875 -46.67 36.14375 -46.5 35.1875 C-45.92251612 32.04378647 -45.92251612 32.04378647 -46 29 C-45.75054807 27.60747228 -45.46696534 26.22086797 -45.16015625 24.83984375 C-44.98419922 24.04642578 -44.80824219 23.25300781 -44.62695312 22.43554688 C-44.44068359 21.61119141 -44.25441406 20.78683594 -44.0625 19.9375 C-43.78889648 18.69516602 -43.78889648 18.69516602 -43.50976562 17.42773438 C-42.12941826 11.25883652 -42.12941826 11.25883652 -41 9 C-38.36 9 -35.72 9 -33 9 C-33 9.99 -33 10.98 -33 12 C-31.700625 11.2265625 -31.700625 11.2265625 -30.375 10.4375 C-26.57336635 8.81828567 -24.90903132 8.84505893 -21 10 C-19 12 -19 12 -18.734375 13.92578125 C-18.78120879 21.07964252 -19.76420745 27.96039599 -21 35 C-17.38593371 33.17604899 -17.38593371 33.17604899 -14.92578125 30.08984375 C-14.72339844 29.37957031 -14.52101563 28.66929687 -14.3125 27.9375 C-14.085625 27.15375 -13.85875 26.37 -13.625 25.5625 C-12.60967842 21.39968153 -11.74860317 17.21859906 -11 13 C-11.99 13 -12.98 13 -14 13 C-13.67 11.68 -13.34 10.36 -13 9 C-11.68 9 -10.36 9 -9 9 C-8.67 6.36 -8.34 3.72 -8 1 C-5.23735711 0.40267181 -2.83967231 0 0 0 Z " fill="#0C0C0C" transform="translate(455,229)"/>
<path d="M0 0 C2.41696872 -0.05411124 4.83271787 -0.09372278 7.25 -0.125 C7.93191406 -0.14175781 8.61382812 -0.15851563 9.31640625 -0.17578125 C13.05133729 -0.21204272 15.87694471 -0.15460786 19 2 C22.13651961 5.6966124 22.46032289 8.9855121 22.2890625 13.65625 C21.69287515 18.49020148 20.0638035 22.40429474 17.375 26.4375 C13.8591951 28.75052954 10.17945986 29.22074612 6 29 C3.71875 28.0078125 3.71875 28.0078125 2 27 C1.95101563 27.556875 1.90203125 28.11375 1.8515625 28.6875 C1.33444423 33.96567265 0.39537537 38.88362365 -1 44 C-3.64 44 -6.28 44 -9 44 C-8.87882812 43.37955811 -8.75765625 42.75911621 -8.6328125 42.11987305 C-8.08565398 39.30963531 -7.54277993 36.49858657 -7 33.6875 C-6.80921875 32.71103516 -6.6184375 31.73457031 -6.421875 30.72851562 C-6.24140625 29.79072266 -6.0609375 28.85292969 -5.875 27.88671875 C-5.70742188 27.02264404 -5.53984375 26.15856934 -5.3671875 25.26831055 C-4.92010153 22.88939804 -4.92010153 22.88939804 -5 20 C-4.75054807 18.60747228 -4.46696534 17.22086797 -4.16015625 15.83984375 C-3.98419922 15.04642578 -3.80824219 14.25300781 -3.62695312 13.43554688 C-3.34754883 12.19901367 -3.34754883 12.19901367 -3.0625 10.9375 C-2.88009766 10.10927734 -2.69769531 9.28105469 -2.50976562 8.42773438 C-1.12941826 2.25883652 -1.12941826 2.25883652 0 0 Z " fill="#080808" transform="translate(279,238)"/>
<path d="M0 0 C-0.71444053 5.29544547 -1.62475322 10.52972746 -2.62890625 15.77734375 C-2.78286362 16.58869278 -2.93682098 17.40004181 -3.09544373 18.23597717 C-3.58298091 20.80343571 -4.07270468 23.3704714 -4.5625 25.9375 C-4.89532739 27.68812346 -5.22801112 29.43877424 -5.56054688 31.18945312 C-6.37203712 35.4599531 -7.18548739 39.73007549 -8 44 C-6.79742554 44.29003906 -6.79742554 44.29003906 -5.57055664 44.5859375 C-4.50699951 44.84632813 -3.44344238 45.10671875 -2.34765625 45.375 C-0.77383179 45.75785156 -0.77383179 45.75785156 0.83178711 46.1484375 C12.90354443 49.39312345 12.90354443 49.39312345 17 54 C15.59546357 54.89434157 14.17578131 55.76493192 12.75 56.625 C11.96109375 57.11226563 11.1721875 57.59953125 10.359375 58.1015625 C8 59 8 59 5.91796875 58.32421875 C4.04013423 57.02770979 2.30585139 55.65905941 0.5625 54.1875 C-4.70212678 50.12164972 -10.76618184 48.14762638 -17 46 C-15.77795291 37.62254563 -14.38251062 29.27897406 -12.9375 20.9375 C-12.67598145 19.42047485 -12.67598145 19.42047485 -12.40917969 17.87280273 C-12.24192383 16.91317627 -12.07466797 15.9535498 -11.90234375 14.96484375 C-11.67792603 13.67501587 -11.67792603 13.67501587 -11.44897461 12.35913086 C-11.04062923 10.21348571 -10.55447536 8.11201099 -10 6 C-11.46109063 6.25554054 -12.91888096 6.53000372 -14.375 6.8125 C-15.59316406 7.03873047 -15.59316406 7.03873047 -16.8359375 7.26953125 C-19.35820641 7.87544942 -19.35820641 7.87544942 -21 11 C-21.02639829 13.29714187 -21.02639829 13.29714187 -20.625 15.6875 C-20.51414062 16.49574219 -20.40328125 17.30398437 -20.2890625 18.13671875 C-20.19367187 18.75160156 -20.09828125 19.36648437 -20 20 C-25.75 23 -25.75 23 -28 23 C-28.3221077 16.96346301 -28.56806924 12.16754855 -25 7 C-18.16347306 -0.03760126 -9.27463561 -0.46806572 0 0 Z " fill="#0B0B0B" transform="translate(79,223)"/>
<path d="M0 0 C3 2.25 3 2.25 5 5 C5 6.32 5 7.64 5 9 C5.99 9.33 6.98 9.66 8 10 C8.33 10.66 8.66 11.32 9 12 C8.01 12.33 7.02 12.66 6 13 C5.04436876 15.13361668 5.04436876 15.13361668 4.3125 17.6875 C2.20337286 23.27708788 -0.55728685 26.45676858 -6 29 C-9.53581515 29.90712861 -12.52852613 29.84266616 -15.80078125 27.96875 C-18.51436609 25.84451175 -19.90387923 24.2883623 -21 21 C-21.59213021 15.17738626 -20.99349729 11.65955105 -17.61328125 6.83203125 C-12.68253685 1.23271134 -7.39152878 -1.21172603 0 0 Z " fill="#0B0B0B" transform="translate(99,238)"/>
<path d="M0 0 C2.64 0 5.28 0 8 0 C7.42085333 6.01326751 6.77662055 12.00892722 6 18 C6.598125 17.21625 7.19625 16.4325 7.8125 15.625 C10 13 10 13 13 11 C17.54054054 11.54054054 17.54054054 11.54054054 19 13 C19.58339847 17.18102234 19.22321789 18.68377466 16.75 22.1875 C14.56422144 24.42295535 12.51056426 26.18145025 10 28 C10.5053125 28.78246094 11.010625 29.56492187 11.53125 30.37109375 C12.1809375 31.38300781 12.830625 32.39492188 13.5 33.4375 C14.1496875 34.44683594 14.799375 35.45617187 15.46875 36.49609375 C17 39 17 39 17 40 C11.83405051 40.61290926 11.83405051 40.61290926 9 40 C6.76385711 37.97631724 5.28125697 35.72267106 4 33 C4 32.34 4 31.68 4 31 C3.34 31 2.68 31 2 31 C1.67 33.97 1.34 36.94 1 40 C-1.64 40 -4.28 40 -7 40 C-6.71542568 37.47818712 -6.42254942 34.95778804 -6.125 32.4375 C-6.04636719 31.73302734 -5.96773437 31.02855469 -5.88671875 30.30273438 C-5.33427781 25.6919773 -4.30493085 21.46839957 -3 17 C-2.38679911 14.03258198 -1.87684477 11.05052475 -1.375 8.0625 C-1.2409375 7.28326172 -1.106875 6.50402344 -0.96875 5.70117188 C-0.6424032 3.80136729 -0.32071377 1.90076363 0 0 Z " fill="#080808" transform="translate(142,227)"/>
<path d="M0 0 C19.38949088 29.08423632 14.02469431 84.79720358 7.76586914 117.21166992 C0.90759604 148.99165915 -13.3468416 180.13877586 -33 206 C-33.96873047 207.30324219 -33.96873047 207.30324219 -34.95703125 208.6328125 C-36.29391698 210.42993758 -37.64470506 212.21671718 -39 214 C-39.66 213.67 -40.32 213.34 -41 213 C-39.58653749 209.7498348 -37.62053805 207.08642469 -35.47241211 204.28271484 C-6.08326173 165.81982332 8.73081804 118.85853001 8.4375 70.75 C8.43512329 69.72051239 8.43274658 68.69102478 8.43029785 67.63034058 C8.37528947 52.39494124 7.66841398 37.85040961 4 23 C3.62584644 21.3894287 3.25214081 19.77875327 2.87890625 18.16796875 C1.80928536 13.66929745 0.66310046 9.19244777 -0.67578125 4.765625 C-1 3 -1 3 0 0 Z " fill="#1E1E1E" transform="translate(468,183)"/>
<path d="M0 0 C-4.90476883 27.80727398 -4.90476883 27.80727398 -6.75 37.1875 C-7.08257812 38.87939453 -7.08257812 38.87939453 -7.421875 40.60546875 C-8 43 -8 43 -9 44 C-11.33297433 44.04092937 -13.66705225 44.04241723 -16 44 C-15.48464687 35.23220085 -13.85003177 26.87229997 -11.9375 18.3125 C-11.65583984 17.02666016 -11.37417969 15.74082031 -11.08398438 14.41601562 C-10.39527758 11.27597956 -9.70050831 8.1374204 -9 5 C-10.64696604 5.4752588 -12.29254728 5.95531891 -13.9375 6.4375 C-15.31228516 6.83775391 -15.31228516 6.83775391 -16.71484375 7.24609375 C-18.9402493 7.79026051 -18.9402493 7.79026051 -20 9 C-20.15672777 12.52637472 -20.04028969 15.61905851 -19 19 C-24.75 22 -24.75 22 -27 22 C-27.56816102 11.16285453 -27.56816102 11.16285453 -24 7 C-17.2612792 -0.06743889 -9.29494057 -0.10853965 0 0 Z " fill="#090909" transform="translate(190,223)"/>
<path d="M0 0 C2.64 0 5.28 0 8 0 C8 0.99 8 1.98 8 3 C9.299375 2.2265625 9.299375 2.2265625 10.625 1.4375 C14.42663365 -0.18171433 16.09096868 -0.15494107 20 1 C22 3 22 3 22.265625 4.92578125 C22.21879121 12.07964252 21.23579255 18.96039599 20 26 C21.65 25.67 23.3 25.34 25 25 C24.67 25.99 24.34 26.98 24 28 C16.8 29.44 16.8 29.44 13.5 27.625 C9.95788594 21.42630039 12.24028651 14.48894348 14 8 C14 6.68 14 5.36 14 4 C10.01825847 5.29137563 8.13540756 6.38668094 6 10 C5.34490417 12.71276861 4.80991069 15.3171263 4.375 18.0625 C3.07888788 25.76333635 3.07888788 25.76333635 2 29 C-0.64 29 -3.28 29 -6 29 C-5.19242459 24.54075989 -4.37811136 20.08277672 -3.5625 15.625 C-3.33240234 14.35398438 -3.10230469 13.08296875 -2.86523438 11.7734375 C-2.64287109 10.56171875 -2.42050781 9.35 -2.19140625 8.1015625 C-1.98717041 6.98088379 -1.78293457 5.86020508 -1.57250977 4.70556641 C-1 2 -1 2 0 0 Z " fill="#0B0B0B" transform="translate(194,238)"/>
<path d="M0 0 C0.33 0.99 0.66 1.98 1 3 C0.34 3 -0.32 3 -1 3 C-1.09087891 4.06927734 -1.09087891 4.06927734 -1.18359375 5.16015625 C-2.5280236 20.5280236 -2.5280236 20.5280236 -5 23 C-4.34 23.66 -3.68 24.32 -3 25 C-6.674032 28.674032 -9.730964 29.78727894 -14.7734375 30.18359375 C-18.40506844 29.88414348 -20.25667045 28.32127885 -23 26 C-22.82457451 17.467942 -21.51134944 10.5865386 -15.359375 4.33203125 C-12.2111625 1.80069823 -10.35043562 1.03504356 -6.25 0.625 C-3 1 -3 1 0 2 C0 1.34 0 0.68 0 0 Z " fill="#0F0F0F" transform="translate(377,237)"/>
<path d="M0 0 C0.33 0.99 0.66 1.98 1 3 C0.34 3 -0.32 3 -1 3 C-1.09087891 4.06927734 -1.09087891 4.06927734 -1.18359375 5.16015625 C-2.5280236 20.5280236 -2.5280236 20.5280236 -5 23 C-4.34 23.66 -3.68 24.32 -3 25 C-6.674032 28.674032 -9.730964 29.78727894 -14.7734375 30.18359375 C-18.40506844 29.88414348 -20.25667045 28.32127885 -23 26 C-22.82457451 17.467942 -21.51134944 10.5865386 -15.359375 4.33203125 C-12.2111625 1.80069823 -10.35043562 1.03504356 -6.25 0.625 C-3 1 -3 1 0 2 C0 1.34 0 0.68 0 0 Z " fill="#0F0F0F" transform="translate(241,237)"/>
<path d="M0 0 C5.68155312 0.58012617 10.3148512 2.69898956 15.4375 5.0625 C16.31986328 5.465896 17.20222656 5.86929199 18.11132812 6.28491211 C54.1946859 22.95811463 85.98847948 48.48354736 109 81 C109.43715332 81.60312012 109.87430664 82.20624023 110.32470703 82.82763672 C121.55880305 98.37955561 140.53277088 125.07397856 139 145 C137.35017623 142.52526435 136.37296622 140.62321689 135.3359375 137.89453125 C135.02269531 137.08387207 134.70945312 136.27321289 134.38671875 135.43798828 C134.05285156 134.57157715 133.71898437 133.70516602 133.375 132.8125 C129.7461046 123.58573435 125.67525557 114.73938181 121 106 C120.38640625 104.84371094 119.7728125 103.68742187 119.140625 102.49609375 C104.30667734 75.55592847 83.03358101 50.91540622 58 33 C57.36642578 32.53851563 56.73285156 32.07703125 56.08007812 31.6015625 C46.55778177 24.72692903 36.54173631 18.96375075 26.125 13.5625 C24.45014526 12.69371216 24.45014526 12.69371216 22.74145508 11.80737305 C16.35908983 8.55733519 9.93973224 5.64934575 3.26123047 3.05834961 C1 2 1 2 0 0 Z " fill="#1C1C1C" transform="translate(329,41)"/>
<path d="M0 0 C3.02352411 2.06872702 3.85787938 3.27360569 4.5625 6.875 C3.83325251 10.92637494 2.23288822 13.52733965 -1 16 C-3.69900583 17.04767324 -6.1196221 17.51180036 -9 18 C-7.91215032 21.24983135 -7.91215032 21.24983135 -6 24 C-1.96839809 24.26293056 -0.44107266 24.29404844 3 22 C3.99 22.33 4.98 22.66 6 23 C0.7871224 27.41961361 -1.78380784 29.3489629 -8.73828125 29.29296875 C-12.0542278 28.86344199 -13.74987627 27.39075646 -16 25 C-18.12849484 20.74301032 -17.63743293 15.22333533 -16.3515625 10.73828125 C-13.36778735 4.04391392 -7.80907183 -1.56181437 0 0 Z " fill="#0E0E0E" transform="translate(320,238)"/>
<path d="M0 0 C2.31 0 4.62 0 7 0 C7.39188326 6.78937742 5.91417806 13.07143996 4.5 19.6875 C4.02775064 21.91983549 3.55885541 24.15288389 3.09375 26.38671875 C2.88427734 27.36858154 2.67480469 28.35044434 2.45898438 29.36206055 C1.88572124 32.21053693 1.88572124 32.21053693 2 36 C2.99 36.33 3.98 36.66 5 37 C5 37.66 5 38.32 5 39 C-2.45038168 40.34351145 -2.45038168 40.34351145 -5 38.75 C-6 37 -6 37 -6 34 C-6.99 33.67 -7.98 33.34 -9 33 C-8.34 32.34 -7.68 31.68 -7 31 C-6.44904331 29.07385962 -6.44904331 29.07385962 -6.1484375 26.8671875 C-6.01953125 26.06152344 -5.890625 25.25585938 -5.7578125 24.42578125 C-5.63148438 23.58402344 -5.50515625 22.74226563 -5.375 21.875 C-5.2409375 21.02550781 -5.106875 20.17601562 -4.96875 19.30078125 C-4.63855014 17.20165356 -4.31832741 15.10096089 -4 13 C-3.34 13 -2.68 13 -2 13 C-1.93941406 12.22914063 -1.87882812 11.45828125 -1.81640625 10.6640625 C-1.73261719 9.66117188 -1.64882813 8.65828125 -1.5625 7.625 C-1.48128906 6.62726563 -1.40007812 5.62953125 -1.31640625 4.6015625 C-1 2 -1 2 0 0 Z " fill="#0A0A0A" transform="translate(380,227)"/>
<path d="M0 0 C2.31 0 4.62 0 7 0 C7.39188326 6.78937742 5.91417806 13.07143996 4.5 19.6875 C4.02775064 21.91983549 3.55885541 24.15288389 3.09375 26.38671875 C2.88427734 27.36858154 2.67480469 28.35044434 2.45898438 29.36206055 C1.88572124 32.21053693 1.88572124 32.21053693 2 36 C2.99 36.33 3.98 36.66 5 37 C5 37.66 5 38.32 5 39 C-2.45038168 40.34351145 -2.45038168 40.34351145 -5 38.75 C-6 37 -6 37 -6 34 C-6.99 33.67 -7.98 33.34 -9 33 C-8.34 32.34 -7.68 31.68 -7 31 C-6.44904331 29.07385962 -6.44904331 29.07385962 -6.1484375 26.8671875 C-6.01953125 26.06152344 -5.890625 25.25585938 -5.7578125 24.42578125 C-5.63148438 23.58402344 -5.50515625 22.74226563 -5.375 21.875 C-5.2409375 21.02550781 -5.106875 20.17601562 -4.96875 19.30078125 C-4.63855014 17.20165356 -4.31832741 15.10096089 -4 13 C-3.34 13 -2.68 13 -2 13 C-1.93941406 12.22914063 -1.87882813 11.45828125 -1.81640625 10.6640625 C-1.73261719 9.66117188 -1.64882812 8.65828125 -1.5625 7.625 C-1.48128906 6.62726563 -1.40007812 5.62953125 -1.31640625 4.6015625 C-1 2 -1 2 0 0 Z " fill="#0A0A0A" transform="translate(244,227)"/>
<path d="M0 0 C0.99 0.33 1.98 0.66 3 1 C2.22398438 1.58265625 1.44796875 2.1653125 0.6484375 2.765625 C-15.54572952 15.01710692 -30.37836842 27.99367483 -43 44 C-43.74507812 44.89332031 -44.49015625 45.78664062 -45.2578125 46.70703125 C-61.11435969 66.25297308 -72.64687843 89.12219829 -81.02734375 112.76171875 C-82 115 -82 115 -84 116 C-83.45845108 109.91167727 -81.57414278 104.94838984 -79.125 99.375 C-78.72716309 98.46274658 -78.32932617 97.55049316 -77.91943359 96.6105957 C-70.75166904 80.44502853 -62.56886047 65.19539308 -52 51 C-51.34330322 50.11006348 -51.34330322 50.11006348 -50.67333984 49.20214844 C-37.57860979 31.59048853 -19.97756792 9.98878396 0 0 Z " fill="#191919" transform="translate(123,69)"/>
<path d="M0 0 C2 3 2 3 1.62695312 5.13110352 C1.34787109 5.93475342 1.06878906 6.73840332 0.78125 7.56640625 C-0.8902922 12.64822591 -2.25126462 17.73712137 -3.5 22.9375 C-3.79970703 24.13342773 -3.79970703 24.13342773 -4.10546875 25.35351562 C-8.09425216 41.93110273 -9.54783715 58.10247963 -9.4375 75.125 C-9.43479095 76.10835327 -9.43208191 77.09170654 -9.42929077 78.1048584 C-9.34425378 98.49470025 -7.29845236 117.52390596 -0.85546875 136.96484375 C0 140 0 140 -1 142 C-3.98592182 139.52549063 -4.67286062 137.35120495 -5.53515625 133.6171875 C-5.78716797 132.53050781 -6.03917969 131.44382812 -6.29882812 130.32421875 C-6.55083984 129.18597656 -6.80285156 128.04773438 -7.0625 126.875 C-7.31837891 125.79089844 -7.57425781 124.70679688 -7.83789062 123.58984375 C-11.36225574 108.06089311 -12.35264392 92.83763429 -12.31567383 76.96240234 C-12.31251085 74.1346992 -12.33609504 71.30804402 -12.36132812 68.48046875 C-12.41695895 52.61153844 -10.39106349 37.46266624 -6.5625 22.0625 C-6.35149658 21.19278564 -6.14049316 20.32307129 -5.9230957 19.42700195 C-4.28753899 12.82515502 -2.36498774 6.38150322 0 0 Z " fill="#242424" transform="translate(46,178)"/>
<path d="M0 0 C0.66 0 1.32 0 2 0 C-1.77158271 10.92391055 -12.15379514 19.73690922 -20 28 C-20.50547363 28.53415527 -21.01094727 29.06831055 -21.53173828 29.61865234 C-44.33771267 53.54821387 -72.35763095 70.14048797 -103 82 C-103.33 81.01 -103.66 80.02 -104 79 C-103.1028125 78.6596875 -102.205625 78.319375 -101.28125 77.96875 C-91.54111495 74.21106743 -82.23273424 69.86679441 -73 65 C-71.86046875 64.40703125 -70.7209375 63.8140625 -69.546875 63.203125 C-54.51137779 55.02101722 -40.74161771 44.48586991 -28.53710938 32.50634766 C-26.93975089 30.94095663 -25.32230869 29.39824899 -23.703125 27.85546875 C-15.34564637 19.79629685 -7.97753849 11.11903761 -1.3203125 1.59765625 C-0.66675781 0.80681641 -0.66675781 0.80681641 0 0 Z " fill="#191919" transform="translate(432,379)"/>
<path d="M0 0 C2.64 0 5.28 0 8 0 C7.67 1.65 7.34 3.3 7 5 C7.66 5.33 8.32 5.66 9 6 C8.53851563 6.49371094 8.07703125 6.98742187 7.6015625 7.49609375 C5.46745584 10.83258734 4.98372232 14.21994038 4.375 18.0625 C3.07888788 25.76333635 3.07888788 25.76333635 2 29 C-0.64 29 -3.28 29 -6 29 C-5.835 28.071875 -5.67 27.14375 -5.5 26.1875 C-4.92251612 23.04378647 -4.92251612 23.04378647 -5 20 C-4.75054807 18.60747228 -4.46696534 17.22086797 -4.16015625 15.83984375 C-3.98419922 15.04642578 -3.80824219 14.25300781 -3.62695312 13.43554688 C-3.44068359 12.61119141 -3.25441406 11.78683594 -3.0625 10.9375 C-2.78889648 9.69516602 -2.78889648 9.69516602 -2.50976562 8.42773438 C-1.12941826 2.25883652 -1.12941826 2.25883652 0 0 Z " fill="#050505" transform="translate(414,238)"/>
<path d="M0 0 C2.64 0 5.28 0 8 0 C7.67 1.65 7.34 3.3 7 5 C7.66 5.33 8.32 5.66 9 6 C8.53851563 6.49371094 8.07703125 6.98742187 7.6015625 7.49609375 C5.46745584 10.83258734 4.98372232 14.21994038 4.375 18.0625 C3.07888788 25.76333635 3.07888788 25.76333635 2 29 C-0.64 29 -3.28 29 -6 29 C-5.835 28.071875 -5.67 27.14375 -5.5 26.1875 C-4.92251612 23.04378647 -4.92251612 23.04378647 -5 20 C-4.75054807 18.60747228 -4.46696534 17.22086797 -4.16015625 15.83984375 C-3.98419922 15.04642578 -3.80824219 14.25300781 -3.62695312 13.43554688 C-3.44068359 12.61119141 -3.25441406 11.78683594 -3.0625 10.9375 C-2.78889648 9.69516602 -2.78889648 9.69516602 -2.50976562 8.42773438 C-1.12941826 2.25883652 -1.12941826 2.25883652 0 0 Z " fill="#050505" transform="translate(330,238)"/>
<path d="M0 0 C2.64 0 5.28 0 8 0 C7.67 1.65 7.34 3.3 7 5 C7.66 5.33 8.32 5.66 9 6 C8.53851563 6.49371094 8.07703125 6.98742187 7.6015625 7.49609375 C5.46745584 10.83258734 4.98372232 14.21994038 4.375 18.0625 C3.07888788 25.76333635 3.07888788 25.76333635 2 29 C-0.64 29 -3.28 29 -6 29 C-5.19242459 24.54075989 -4.37811136 20.08277672 -3.5625 15.625 C-3.33240234 14.35398438 -3.10230469 13.08296875 -2.86523438 11.7734375 C-2.64287109 10.56171875 -2.42050781 9.35 -2.19140625 8.1015625 C-1.98717041 6.98088379 -1.78293457 5.86020508 -1.57250977 4.70556641 C-1 2 -1 2 0 0 Z " fill="#050505" transform="translate(194,238)"/>
<path d="M0 0 C15.85798168 23.78697252 14.7010913 68.67490683 10 96 C9.67 96 9.34 96 9 96 C8.99635437 95.43941895 8.99270874 94.87883789 8.98895264 94.30126953 C8.94629237 88.32822951 8.8764066 82.35589993 8.79248047 76.38330078 C8.76470059 74.1708089 8.74327888 71.95822569 8.72900391 69.74560547 C8.57751761 47.55791198 5.76045364 26.04612417 -0.67578125 4.765625 C-1 3 -1 3 0 0 Z " fill="#222222" transform="translate(468,183)"/>
<path d="M0 0 C1.2065625 0.0309375 1.2065625 0.0309375 2.4375 0.0625 C3.99851055 6.21604883 3.5014175 13.36245882 0.36328125 18.98828125 C-0.875 20.375 -0.875 20.375 -3.5625 22.0625 C-6.23046875 21.66796875 -6.23046875 21.66796875 -8.5625 21.0625 C-9.1709712 12.94955066 -8.89134608 7.43964367 -3.5625 1.0625 C-2.5625 0.0625 -2.5625 0.0625 0 0 Z " fill="#F8F8F8" transform="translate(372.5625,240.9375)"/>
<path d="M0 0 C1.2065625 0.0309375 1.2065625 0.0309375 2.4375 0.0625 C3.99851055 6.21604883 3.5014175 13.36245882 0.36328125 18.98828125 C-0.875 20.375 -0.875 20.375 -3.5625 22.0625 C-6.23046875 21.66796875 -6.23046875 21.66796875 -8.5625 21.0625 C-9.1709712 12.94955066 -8.89134608 7.43964367 -3.5625 1.0625 C-2.5625 0.0625 -2.5625 0.0625 0 0 Z " fill="#F8F8F8" transform="translate(236.5625,240.9375)"/>
<path d="M0 0 C1.65 0 3.3 0 5 0 C5.66 1.65 6.32 3.3 7 5 C5.68 5.33 4.36 5.66 3 6 C3 6.66 3 7.32 3 8 C4.32 8.66 5.64 9.32 7 10 C6.71758359 11.46015291 6.42373386 12.91809793 6.125 14.375 C5.96257812 15.18710937 5.80015625 15.99921875 5.6328125 16.8359375 C5 19 5 19 3 21 C0.375 21.125 0.375 21.125 -2 21 C-4.45254338 16.64428296 -4.68906893 12.91161923 -4 8 C-2.90147197 5.11039367 -1.56365469 2.68753151 0 0 Z " fill="#F2F2F2" transform="translate(118,242)"/>
<path d="M0 0 C1.65 0 3.3 0 5 0 C5.66 1.65 6.32 3.3 7 5 C5.68 5.33 4.36 5.66 3 6 C3 6.66 3 7.32 3 8 C4.32 8.66 5.64 9.32 7 10 C6.71758359 11.46015291 6.42373386 12.91809793 6.125 14.375 C5.96257812 15.18710937 5.80015625 15.99921875 5.6328125 16.8359375 C5 19 5 19 3 21 C0.375 21.125 0.375 21.125 -2 21 C-4.45254338 16.64428296 -4.68906893 12.91161923 -4 8 C-2.90147197 5.11039367 -1.56365469 2.68753151 0 0 Z " fill="#F2F2F2" transform="translate(90,242)"/>
<path d="M0 0 C1.65 0 3.3 0 5 0 C6.96140327 3.92280655 6.35060622 8.71414119 6 13 C4.66792442 16.45128672 3.59003919 18.40996081 1 21 C-1.625 21.125 -1.625 21.125 -4 21 C-3.40546697 6.21867882 -3.40546697 6.21867882 0 0 Z " fill="#F4F4F4" transform="translate(287,242)"/>
<path d="M0 0 C4.96845155 0.44546112 9.90311945 0.95344257 14.828125 1.75390625 C36.74107781 5.12465632 58.89633844 4.27504397 81 4 C75.21762353 9.78237647 60.2667369 7.24087026 52.3125 7.25 C51.15755539 7.25250763 51.15755539 7.25250763 49.97927856 7.25506592 C36.80542156 7.25677377 23.98226302 6.35850135 11 4 C10.07590332 3.84241211 9.15180664 3.68482422 8.19970703 3.52246094 C7.28946777 3.3577832 6.37922852 3.19310547 5.44140625 3.0234375 C4.61455322 2.87567871 3.7877002 2.72791992 2.93579102 2.57568359 C2.29697998 2.38570801 1.65816895 2.19573242 1 2 C0.67 1.34 0.34 0.68 0 0 Z " fill="#171717" transform="translate(202,472)"/>
<path d="M0 0 C-1 2 -1 2 -3.01953125 2.75390625 C-3.94121094 3.02074219 -4.86289063 3.28757813 -5.8125 3.5625 C-22.66915546 8.98142483 -40.67946168 17.01248376 -54.76171875 27.859375 C-58 30 -58 30 -60.20239258 29.63378906 C-60.79560303 29.42463867 -61.38881348 29.21548828 -62 29 C-19.95365192 -0.53928789 -19.95365192 -0.53928789 0 0 Z " fill="#1D1D1D" transform="translate(186,39)"/>
<path d="M0 0 C1.39518067 0.00502972 2.79036311 0.00959 4.18554688 0.01367188 C7.56124437 0.02535249 10.93684826 0.04173167 14.3125 0.0625 C14.3125 0.3925 14.3125 0.7225 14.3125 1.0625 C13.47517334 1.09690186 12.63784668 1.13130371 11.77514648 1.16674805 C-4.10608345 1.86305648 -19.80342103 2.90329399 -35.5 5.5 C-37.3718396 5.80780396 -37.3718396 5.80780396 -39.28149414 6.12182617 C-46.84686119 7.428985 -54.26911489 9.08716011 -61.6875 11.0625 C-61.3575 10.0725 -61.0275 9.0825 -60.6875 8.0625 C-41.99701713 0.73712343 -19.76580737 -0.12535453 0 0 Z " fill="#202020" transform="translate(254.6875,32.9375)"/>
<path d="M0 0 C0.66 0 1.32 0 2 0 C2.45512243 19.47924001 1.40228812 37.99359955 -3 57 C-3.66 57 -4.32 57 -5 57 C-4.7972795 55.35882663 -4.59432758 53.7176816 -4.39038086 52.07666016 C-4.21024889 50.62466726 -4.03141915 49.17251234 -3.85375977 47.72021484 C-3.43228049 44.30788914 -2.98591544 40.90951428 -2.45703125 37.51171875 C-0.54965024 25.07788919 -0.35099687 12.55741241 0 0 Z " fill="#1B1B1B" transform="translate(472,245)"/>
<path d="M0 0 C5.65060191 1.8162649 11.20475828 3.82323641 16.75 5.9375 C25.64761805 9.31040546 34.55638696 12.58485917 44 14 C43.34 14.66 42.68 15.32 42 16 C35.60218074 15.67796212 29.90337989 13.88238931 23.875 11.8125 C22.96081299 11.50368896 22.04662598 11.19487793 21.10473633 10.87670898 C13.56178538 8.28644811 6.24805626 5.32557876 -1 2 C-0.67 1.34 -0.34 0.68 0 0 Z " fill="#1E1E1E" transform="translate(160,457)"/>
<path d="M0 0 C0.66 0 1.32 0 2 0 C3.3087324 4.60243002 3.19087363 9.05779167 3.1875 13.8125 C3.1884668 15.20698364 3.1884668 15.20698364 3.18945312 16.62963867 C3.12945616 24.55810096 2.34385186 32.18886109 1 40 C0.67 40 0.34 40 0 40 C0 26.8 0 13.6 0 0 Z " fill="#3E3E3E" transform="translate(477,239)"/>
<path d="M0 0 C-0.33 0.99 -0.66 1.98 -1 3 C-2.72265625 3.80859375 -2.72265625 3.80859375 -5.0625 4.4375 C-5.96097656 4.68242187 -6.85945313 4.92734375 -7.78515625 5.1796875 C-9.37650391 5.58574219 -9.37650391 5.58574219 -11 6 C-11.61987793 6.16145508 -12.23975586 6.32291016 -12.87841797 6.48925781 C-36.46708024 12.62774331 -36.46708024 12.62774331 -44 12 C-44.66 11.34 -45.32 10.68 -46 10 C-45.04299194 9.85751831 -45.04299194 9.85751831 -44.06665039 9.7121582 C-30.32149241 7.63255048 -13.49448664 0 0 0 Z " fill="#1E1E1E" transform="translate(327,465)"/>
<path d="M0 0 C2 2 2 2 2.1171875 4.625 C1.19557368 17.46813458 -1.00681353 31.05977149 -6 43 C-7.485 43.495 -7.485 43.495 -9 44 C-8.74605469 43.01902344 -8.49210937 42.03804688 -8.23046875 41.02734375 C-4.75590649 27.46299167 -1.98814581 13.87024079 0 0 Z " fill="#212121" transform="translate(476,277)"/>
<path d="M0 0 C0.66 0 1.32 0 2 0 C0.40279245 3.81705534 -2.14382007 6.584382 -4.9375 9.5625 C-5.42114014 10.08263672 -5.90478027 10.60277344 -6.40307617 11.13867188 C-20.64117679 26.35910712 -20.64117679 26.35910712 -28 31 C-28 28 -28 28 -25.76171875 25.6875 C-24.74334363 24.78443815 -23.71809921 23.88908596 -22.6875 23 C-21.58409581 22.01899466 -20.48257801 21.03586405 -19.3828125 20.05078125 C-18.81981445 19.54756348 -18.25681641 19.0443457 -17.67675781 18.52587891 C-12.12262606 13.47152197 -6.64042466 8.17052896 -1.9375 2.3125 C-1.298125 1.549375 -0.65875 0.78625 0 0 Z " fill="#171717" transform="translate(426,396)"/>
<path d="M0 0 C0.66 0 1.32 0 2 0 C2.69508878 4.00164332 3.38880398 8.00352219 4.08129883 12.00561523 C4.31660702 13.36440313 4.55227729 14.72312837 4.78833008 16.08178711 C5.12939278 18.04524108 5.4690049 20.00894684 5.80859375 21.97265625 C6.01282959 23.15093994 6.21706543 24.32922363 6.42749023 25.54321289 C6.71088257 27.25432251 6.71088257 27.25432251 7 29 C7.23082275 30.25868896 7.46164551 31.51737793 7.69946289 32.81420898 C7.84822876 34.39117554 7.84822876 34.39117554 8 36 C7.34 36.66 6.68 37.32 6 38 C2.86923829 25.44655741 -0.19687988 13.02688563 0 0 Z " fill="#2D2D2D" transform="translate(29,275)"/>
<path d="M0 0 C2.06659214 2.62631724 3.69520996 5.17527079 5.12109375 8.1953125 C5.68582397 9.3862854 5.68582397 9.3862854 6.26196289 10.60131836 C6.64989014 11.4341333 7.03781738 12.26694824 7.4375 13.125 C7.83638428 13.97650635 8.23526855 14.8280127 8.64624023 15.70532227 C16 31.50692672 16 31.50692672 16 37 C15.34 37 14.68 37 14 37 C13.68361572 36.18547363 13.68361572 36.18547363 13.36083984 35.35449219 C7.82014673 21.09843224 7.82014673 21.09843224 1.03125 7.41015625 C-0.10700133 4.74992493 -0.20489786 2.86344758 0 0 Z " fill="#222222" transform="translate(446,146)"/>
<path d="M0 0 C4.57022107 0.54910235 7.41061191 2.36993808 11.1875 4.9375 C19.50261094 10.48128667 28.22350049 15.23362442 37 20 C34 21 34 21 31.93798828 20.24658203 C31.15665527 19.83778809 30.37532227 19.42899414 29.5703125 19.0078125 C28.69785889 18.55390137 27.82540527 18.09999023 26.92651367 17.63232422 C26.00201416 17.13490723 25.07751465 16.63749023 24.125 16.125 C23.18567627 15.62629395 22.24635254 15.12758789 21.27856445 14.61376953 C13.83196274 10.59427886 6.62713873 6.28695669 0 1 C0 0.67 0 0.34 0 0 Z " fill="#151515" transform="translate(123,437)"/>
<path d="M0 0 C-1.32395544 2.64791088 -2.35278622 2.65959132 -5.12109375 3.5859375 C-5.97026367 3.87525146 -6.81943359 4.16456543 -7.69433594 4.46264648 C-8.59958008 4.76372314 -9.50482422 5.0647998 -10.4375 5.375 C-12.26489086 5.99703193 -14.09172106 6.62071352 -15.91796875 7.24609375 C-16.79630371 7.54628418 -17.67463867 7.84647461 -18.57958984 8.15576172 C-22.7805393 9.62105153 -26.90415164 11.26465372 -31 13 C-31 12.01 -31 11.02 -31 10 C-27.22964855 8.51960293 -23.45863745 7.04089356 -19.6875 5.5625 C-18.61564453 5.14162109 -17.54378906 4.72074219 -16.43945312 4.28710938 C-15.41142578 3.88427734 -14.38339844 3.48144531 -13.32421875 3.06640625 C-12.37635498 2.69459229 -11.42849121 2.32277832 -10.4519043 1.93969727 C-6.74414442 0.51869082 -3.96245952 -0.1070935 0 0 Z " fill="#1D1D1D" transform="translate(194,42)"/>
<path d="M0 0 C0.33 0 0.66 0 1 0 C1.33 10.56 1.66 21.12 2 32 C1.34 32 0.68 32 0 32 C-1.11301484 28.66095549 -1.12936638 26.13370628 -1.1328125 22.6171875 C-1.13474609 20.74353516 -1.13474609 20.74353516 -1.13671875 18.83203125 C-1.13285156 17.52621094 -1.12898438 16.22039062 -1.125 14.875 C-1.12886719 13.56144531 -1.13273437 12.24789062 -1.13671875 10.89453125 C-1.13542969 9.64800781 -1.13414063 8.40148437 -1.1328125 7.1171875 C-1.13168457 5.96847168 -1.13055664 4.81975586 -1.12939453 3.63623047 C-1 1 -1 1 0 0 Z " fill="#141414" transform="translate(29,243)"/>
<path d="M0 0 C0.99 0.33 1.98 0.66 3 1 C2.75675684 5.2162147 2.62862242 7.35483489 -0.375 10.4375 C-3 12 -3 12 -6 12 C-5.49135273 7.62563349 -4.57073772 4.59903281 -2 1 C-1.34 0.67 -0.68 0.34 0 0 Z " fill="#ECECEC" transform="translate(401,241)"/>
<path d="M0 0 C0.99 0.33 1.98 0.66 3 1 C2.75675684 5.2162147 2.62862242 7.35483489 -0.375 10.4375 C-3 12 -3 12 -6 12 C-5.49135273 7.62563349 -4.57073772 4.59903281 -2 1 C-1.34 0.67 -0.68 0.34 0 0 Z " fill="#ECECEC" transform="translate(317,241)"/>
<path d="M0 0 C0.99 0.33 1.98 0.66 3 1 C2.75675684 5.2162147 2.62862242 7.35483489 -0.375 10.4375 C-3 12 -3 12 -6 12 C-5.49135273 7.62563349 -4.57073772 4.59903281 -2 1 C-1.34 0.67 -0.68 0.34 0 0 Z " fill="#ECECEC" transform="translate(266,241)"/>
<path d="M0 0 C0.99 0 1.98 0 3 0 C2.74605469 0.99257812 2.49210937 1.98515625 2.23046875 3.0078125 C-0.0454335 11.9694549 -2.13199761 20.94301872 -4 30 C-6.82344775 25.76482837 -5.88032955 22.85271007 -5 18 C-4.25511413 14.77779937 -3.36967098 11.61001469 -2.4375 8.4375 C-2.20353516 7.61958984 -1.96957031 6.80167969 -1.72851562 5.95898438 C-1.15880046 3.97079473 -0.58033086 1.98511701 0 0 Z " fill="#343434" transform="translate(38,184)"/>
<path d="M0 0 C0.66 0 1.32 0 2 0 C0.63392274 3.86365286 -1.13983462 6.75245321 -3.625 10 C-8.17134201 16.10342252 -12.09803613 22.47251256 -16 29 C-17 26 -17 26 -15.41015625 22.8125 C-14.63977303 21.53425322 -13.85636815 20.26379527 -13.0625 19 C-12.45039673 18.00601196 -12.45039673 18.00601196 -11.82592773 16.99194336 C-4.39522116 5.06978748 -4.39522116 5.06978748 0 0 Z " fill="#161616" transform="translate(78,120)"/>
<path d="M0 0 C0.66 0 1.32 0 2 0 C1.67920889 9.94452455 -1.69407453 18.719145 -5 28 C-6.64938825 25.49209736 -7.055756 24.3565501 -6.58447266 21.34277344 C-6.2807373 20.35825195 -5.97700195 19.37373047 -5.6640625 18.359375 C-5.34179688 17.28945313 -5.01953125 16.21953125 -4.6875 15.1171875 C-4.336875 14.00601562 -3.98625 12.89484375 -3.625 11.75 C-3.28210938 10.62335938 -2.93921875 9.49671875 -2.5859375 8.3359375 C-1.73691258 5.55302249 -0.87454321 2.77498071 0 0 Z " fill="#282828" transform="translate(466,302)"/>
<path d="M0 0 C2 3 2 3 1.6796875 4.953125 C1.41414063 5.71109375 1.14859375 6.4690625 0.875 7.25 C-0.64434714 11.84210751 -1.96028146 16.44851168 -3.1875 21.125 C-3.36619629 21.80079102 -3.54489258 22.47658203 -3.72900391 23.17285156 C-4.15414397 24.78151203 -4.57729032 26.39069919 -5 28 C-5.66 27.67 -6.32 27.34 -7 27 C-6.42063175 20.66361809 -4.93337939 15.02931548 -2.9375 9 C-2.65583984 8.12988281 -2.37417969 7.25976562 -2.08398438 6.36328125 C-1.39567574 4.24002411 -0.70093339 2.11911583 0 0 Z " fill="#252525" transform="translate(46,178)"/>
<path d="M0 0 C0.99 0.33 1.98 0.66 3 1 C-0.95257472 4.32168298 -5.08849978 7.03623204 -9.5 9.6875 C-10.47646484 10.29174805 -10.47646484 10.29174805 -11.47265625 10.90820312 C-14.96349082 13.01328215 -17.8704581 14.53145582 -22 15 C-18.61284019 11.20568799 -14.78771532 8.89200018 -10.4375 6.375 C-5.15739255 3.2873119 -5.15739255 3.2873119 0 0 Z " fill="#232323" transform="translate(146,54)"/>
<path d="M0 0 C-0.3000175 3.50020422 -0.95733741 4.94904191 -3.25 7.6875 C-5.83562327 9.86177411 -7.80636682 10.99628672 -11 12 C-9.50948318 7.39294801 -7.21457741 4.53603516 -4 1 C-2 0 -2 0 0 0 Z " fill="#E3E3E3" transform="translate(156,242)"/>
<path d="M0 0 C0.99 0.33 1.98 0.66 3 1 C-1.13907441 4.55944071 -5.55271739 7.13828729 -10.3125 9.75 C-11.05306641 10.16121094 -11.79363281 10.57242187 -12.55664062 10.99609375 C-14.36879627 12.00154785 -16.1840842 13.001353 -18 14 C-18.33 13.01 -18.66 12.02 -19 11 C-18.18994507 10.55346069 -18.18994507 10.55346069 -17.36352539 10.09790039 C-14.92887423 8.75452698 -12.4956726 7.40854945 -10.0625 6.0625 C-9.21236328 5.59392578 -8.36222656 5.12535156 -7.48632812 4.64257812 C-6.67744141 4.19462891 -5.86855469 3.74667969 -5.03515625 3.28515625 C-3.91185913 2.66459351 -3.91185913 2.66459351 -2.76586914 2.03149414 C-1.03748855 1.1221285 -1.03748855 1.1221285 0 0 Z " fill="#222222" transform="translate(373,442)"/>
<path d="M0 0 C0 0.33 0 0.66 0 1 C-2.54093855 1.64881448 -5.08268273 2.29412899 -7.625 2.9375 C-8.33785156 3.11990234 -9.05070313 3.30230469 -9.78515625 3.49023438 C-18.42341542 5.66961169 -18.42341542 5.66961169 -22 6 C-22.99 5.34 -23.98 4.68 -25 4 C-22.15014214 3.12845617 -19.29662264 2.2776319 -16.4375 1.4375 C-15.63763672 1.19064453 -14.83777344 0.94378906 -14.01367188 0.68945312 C-8.88157635 -0.79780721 -5.22915401 -1.17217278 0 0 Z " fill="#323232" transform="translate(208,34)"/>
<path d="M0 0 C0 0.33 0 0.66 0 1 C-2.89568747 1.64649305 -5.79154279 2.29221732 -8.6875 2.9375 C-9.91243164 3.21110352 -9.91243164 3.21110352 -11.16210938 3.49023438 C-15.10082483 4.36727628 -19.03791195 5.23340455 -23 6 C-22.67 5.01 -22.34 4.02 -22 3 C-19.59212308 2.07527919 -17.36037513 1.37608687 -14.875 0.75 C-14.22273437 0.564375 -13.57046875 0.37875 -12.8984375 0.1875 C-8.15148863 -1.05574851 -4.70844679 -0.95391909 0 0 Z " fill="#2B2B2B" transform="translate(216,38)"/>
<path d="M0 0 C-0.33 0.66 -0.66 1.32 -1 2 C-8.43145103 3.51815267 -16.42007692 4.59450377 -24 4 C-24.66 3.34 -25.32 2.68 -26 2 C-23.16724047 1.66103732 -20.33395339 1.32870306 -17.5 1 C-16.31277344 0.85691406 -16.31277344 0.85691406 -15.1015625 0.7109375 C-10.02970596 0.12892118 -5.10506141 -0.09367085 0 0 Z " fill="#1A1A1A" transform="translate(292,469)"/>
<path d="M0 0 C0.66 0 1.32 0 2 0 C3.6160552 2.41073923 5.10656134 4.8077335 6.5625 7.3125 C6.97435547 8.00279297 7.38621094 8.69308594 7.81054688 9.40429688 C9.50670058 12.27748687 10.93976596 14.81929787 12 18 C11.01 18 10.02 18 9 18 C7.68144905 15.75335738 6.37006028 13.50302694 5.0625 11.25 C4.68931641 10.61578125 4.31613281 9.9815625 3.93164062 9.328125 C2.14463236 6.23708368 0.75114727 3.48532332 0 0 Z " fill="#212121" transform="translate(441,129)"/>
<path d="M0 0 C0.99 0.33 1.98 0.66 3 1 C-0.17121469 4.38262901 -3.56193539 7.40577949 -7.125 10.375 C-7.97320312 11.08398438 -8.82140625 11.79296875 -9.6953125 12.5234375 C-10.45585938 13.01070312 -11.21640625 13.49796875 -12 14 C-12.99 13.67 -13.98 13.34 -15 13 C-13.43910974 11.58155991 -11.8762111 10.16532975 -10.3125 8.75 C-9.44238281 7.96109375 -8.57226562 7.1721875 -7.67578125 6.359375 C-6.79277344 5.58078125 -5.90976563 4.8021875 -5 4 C-4.12730469 3.22140625 -3.25460938 2.4428125 -2.35546875 1.640625 C-1.57816406 1.09921875 -0.80085938 0.5578125 0 0 Z " fill="#1E1E1E" transform="translate(118,79)"/>
<path d="M0 0 C-0.33 0.99 -0.66 1.98 -1 3 C-3.00390625 3.87890625 -3.00390625 3.87890625 -5.5625 4.5625 C-6.45839844 4.80742187 -7.35429687 5.05234375 -8.27734375 5.3046875 C-9.17582031 5.53414063 -10.07429688 5.76359375 -11 6 C-11.80566406 6.20882813 -12.61132812 6.41765625 -13.44140625 6.6328125 C-15.29075788 7.10259413 -17.14491266 7.5534049 -19 8 C-19 7.01 -19 6.02 -19 5 C-18.02417969 4.72285156 -17.04835938 4.44570313 -16.04296875 4.16015625 C-14.75780249 3.794306 -13.47264679 3.42841864 -12.1875 3.0625 C-10.92292969 2.70285156 -9.65835937 2.34320313 -8.35546875 1.97265625 C-1.5502008 0 -1.5502008 0 0 0 Z " fill="#272727" transform="translate(327,465)"/>
<path d="M0 0 C4.34174442 0.67963477 8.59703519 1.55848785 12.875 2.5625 C14.02742187 2.83191406 15.17984375 3.10132813 16.3671875 3.37890625 C17.23601562 3.58386719 18.10484375 3.78882813 19 4 C18.34 4.66 17.68 5.32 17 6 C10.69827076 5.66240736 4.97715313 3.94747407 -1 2 C-0.67 1.34 -0.34 0.68 0 0 Z " fill="#2A2A2A" transform="translate(185,467)"/>
<path d="M0 0 C-5.91401451 3.18446935 -12.3048892 4.34333902 -19 4 C-19 3.34 -19 2.68 -19 2 C-16.9620493 1.46481117 -14.91940991 0.94745907 -12.875 0.4375 C-11.73804688 0.14746094 -10.60109375 -0.14257812 -9.4296875 -0.44140625 C-5.93510616 -1.01056927 -3.42796653 -0.78666101 0 0 Z " fill="#282828" transform="translate(311,466)"/>
<path d="M0 0 C5.465476 0.58143362 11.04578151 1.51225939 16 4 C16.33 4.99 16.66 5.98 17 7 C10.98922864 5.36959185 4.98336072 3.72852643 -1 2 C-0.67 1.34 -0.34 0.68 0 0 Z " fill="#272727" transform="translate(313,36)"/>
<path d="M0 0 C0.66 0 1.32 0 2 0 C3.32 5.28 4.64 10.56 6 16 C3 15 3 15 2.05078125 13.14453125 C0.62131948 8.62924723 -0.3692425 4.80015245 0 0 Z " fill="#343434" transform="translate(40,304)"/>
<path d="M0 0 C2.74054368 3.32486381 4.42376049 6.83057886 6.1875 10.75 C6.71730469 11.92046875 7.24710937 13.0909375 7.79296875 14.296875 C8.19128906 15.18890625 8.58960938 16.0809375 9 17 C8.01 17 7.02 17 6 17 C4.98758753 15.11076602 3.99052575 13.21330056 3 11.3125 C2.443125 10.25675781 1.88625 9.20101562 1.3125 8.11328125 C0.0327726 5.07773738 -0.28851043 3.23973174 0 0 Z " fill="#252525" transform="translate(446,146)"/>
<path d="M0 0 C4.85110358 4.41009417 8.348107 9.58004353 12 15 C11.34 15.66 10.68 16.32 10 17 C8.32457538 14.73518493 6.65960984 12.46385674 5 10.1875 C4.52304687 9.54490234 4.04609375 8.90230469 3.5546875 8.24023438 C3.10351562 7.61826172 2.65234375 6.99628906 2.1875 6.35546875 C1.76855469 5.78465576 1.34960938 5.21384277 0.91796875 4.62573242 C0 3 0 3 0 0 Z " fill="#171717" transform="translate(430,113)"/>
<path d="M0 0 C0.66 0.33 1.32 0.66 2 1 C1.57620166 3.10696905 1.1354597 5.21053527 0.6875 7.3125 C0.44386719 8.48425781 0.20023437 9.65601563 -0.05078125 10.86328125 C-0.96393655 13.88082736 -1.55874874 15.10580785 -4 17 C-5.37543445 14.24913109 -4.60276952 13.08079274 -3.6875 10.1875 C-3.40648437 9.29675781 -3.12546875 8.40601563 -2.8359375 7.48828125 C-1.98283053 4.94889276 -1.06535557 2.45851284 0 0 Z " fill="#2E2E2E" transform="translate(472,304)"/>
<path d="M0 0 C6.32966418 0.56263682 12.21835667 2.34924657 18 5 C18.33 5.66 18.66 6.32 19 7 C14.73378623 6.37957611 10.78050867 5.41324383 6.6875 4.0625 C5.63949219 3.72347656 4.59148437 3.38445313 3.51171875 3.03515625 C1 2 1 2 0 0 Z " fill="#181818" transform="translate(319,44)"/>
<path d="M0 0 C2.4609375 0.171875 2.4609375 0.171875 5.375 0.75 C6.33148438 0.93046875 7.28796875 1.1109375 8.2734375 1.296875 C10.76587393 1.93962365 12.76271287 2.74881573 15 4 C8.91891127 5.80789124 3.83137661 3.83657235 -2 2 C-1.34 1.34 -0.68 0.68 0 0 Z " fill="#333333" transform="translate(192,463)"/>
<path d="M0 0 C0.66 0.99 1.32 1.98 2 3 C-0.31 6.96 -2.62 10.92 -5 15 C-5.99 14.67 -6.98 14.34 -8 14 C-5.36 9.38 -2.72 4.76 0 0 Z " fill="#222222" transform="translate(63,131)"/>
<path d="M0 0 C0.66 0.99 1.32 1.98 2 3 C0.02 6.96 -1.96 10.92 -4 15 C-4.66 14.67 -5.32 14.34 -6 14 C-4.50829734 9.0276578 -2.39542583 4.58154261 0 0 Z " fill="#242424" transform="translate(60,147)"/>
<path d="M0 0 C1.94113934 0.92994117 3.8777951 1.8692453 5.8125 2.8125 C6.89144531 3.33457031 7.97039062 3.85664062 9.08203125 4.39453125 C11.56579702 5.76110117 13.1799378 6.87340101 15 9 C14.01 9.495 14.01 9.495 13 10 C10.70040581 8.80291048 8.56020931 7.56726357 6.375 6.1875 C5.45847656 5.63352539 5.45847656 5.63352539 4.5234375 5.06835938 C2.97608232 4.10644326 1.48274264 3.05880355 0 2 C0 1.34 0 0.68 0 0 Z " fill="#151515" transform="translate(357,59)"/>
<path d="M0 0 C6.02770138 0.47587116 10.76678289 3.19722957 16 6 C12.05131377 7.31622874 10.64928624 6.30180315 6.875 4.6875 C5.26238281 4.01267578 5.26238281 4.01267578 3.6171875 3.32421875 C1 2 1 2 0 0 Z " fill="#161616" transform="translate(329,41)"/>
<path d="M0 0 C0.66 0 1.32 0 2 0 C3.00109515 3.31070838 3.10356134 6.30084769 3.0625 9.75 C3.05347656 10.73484375 3.04445312 11.7196875 3.03515625 12.734375 C3.02355469 13.48203125 3.01195312 14.2296875 3 15 C0.22957891 12.22957891 0.60203894 10.23466195 0.375 6.375 C0.30023437 5.18648438 0.22546875 3.99796875 0.1484375 2.7734375 C0.09945313 1.85820312 0.05046875 0.94296875 0 0 Z " fill="#232323" transform="translate(29,275)"/>
<path d="M0 0 C0.66 0.33 1.32 0.66 2 1 C2 3 2 3 1 6 C1 5.34 1 4.68 1 4 C-2.057952 5.73559438 -4.63379989 7.38472619 -7 10 C-7.66 9.34 -8.32 8.68 -9 8 C-6.14723863 5.06799526 -3.34920216 2.35684596 0 0 Z " fill="#242424" transform="translate(155,238)"/>
<path d="M0 0 C0.99 0.33 1.98 0.66 3 1 C-0.3 4.3 -3.6 7.6 -7 11 C-7.66 10.34 -8.32 9.68 -9 9 C-6.03 6.03 -3.06 3.06 0 0 Z " fill="#141414" transform="translate(102,93)"/>
<path d="M0 0 C0.99 0.33 1.98 0.66 3 1 C1.04532248 2.33898399 -0.9133579 3.67129047 -2.875 5 C-3.96554687 5.7425 -5.05609375 6.485 -6.1796875 7.25 C-9 9 -9 9 -11 9 C-11 8.34 -11 7.68 -11 7 C-8.69921875 5.23828125 -8.69921875 5.23828125 -5.6875 3.3125 C-4.70136719 2.66925781 -3.71523438 2.02601563 -2.69921875 1.36328125 C-1.80847656 0.91339844 -0.91773438 0.46351563 0 0 Z " fill="#131313" transform="translate(379,432)"/>
<path d="M0 0 C0.33 0 0.66 0 1 0 C1.3690205 11.52164009 1.3690205 11.52164009 -1 17 C-1.33 17 -1.66 17 -2 17 C-1.85848172 14.9163691 -1.71162064 12.83310062 -1.5625 10.75 C-1.48128906 9.58984375 -1.40007813 8.4296875 -1.31640625 7.234375 C-1.06752213 4.69022624 -0.71885058 2.44046752 0 0 Z " fill="#1D1D1D" transform="translate(36,220)"/>
<path d="M0 0 C0.33 0 0.66 0 1 0 C1.12036664 5.77759884 0.8320582 11.27959989 0 17 C-2.10275161 13.60014874 -2.12715391 11.3054 -1.6875 7.375 C-1.58824219 6.41335937 -1.48898438 5.45171875 -1.38671875 4.4609375 C-1 2 -1 2 0 0 Z " fill="#282828" transform="translate(32,211)"/>
<path d="M0 0 C2.11044382 3.16566573 2.75552077 5.51197415 3.625 9.1875 C3.88539063 10.27417969 4.14578125 11.36085937 4.4140625 12.48046875 C4.60742188 13.31191406 4.80078125 14.14335937 5 15 C4.01 14.67 3.02 14.34 2 14 C1.015625 11.6015625 1.015625 11.6015625 0.25 8.625 C-0.14445312 7.15933594 -0.14445312 7.15933594 -0.546875 5.6640625 C-1 3 -1 3 0 0 Z " fill="#2B2B2B" transform="translate(468,183)"/>
<path d="M0 0 C0 0.66 0 1.32 0 2 C-4.29 3.65 -8.58 5.3 -13 7 C-13 6.01 -13 5.02 -13 4 C-11.2097939 3.32942113 -9.41778511 2.6636531 -7.625 2 C-6.62726563 1.62875 -5.62953125 1.2575 -4.6015625 0.875 C-2 0 -2 0 0 0 Z " fill="#171717" transform="translate(341,460)"/>
<path d="M0 0 C0.99 0.33 1.98 0.66 3 1 C0.36 4.3 -2.28 7.6 -5 11 C-5.66 10.34 -6.32 9.68 -7 9 C-4.69 6.03 -2.38 3.06 0 0 Z " fill="#202020" transform="translate(82,106)"/>
<path d="M0 0 C0.99 0 1.98 0 3 0 C2.57811541 1.8161982 2.13700835 3.62794073 1.6875 5.4375 C1.44386719 6.44683594 1.20023438 7.45617187 0.94921875 8.49609375 C0.63597656 9.32238281 0.32273438 10.14867187 0 11 C-0.99 11.33 -1.98 11.66 -3 12 C-2.01 8.04 -1.02 4.08 0 0 Z " fill="#353535" transform="translate(38,184)"/>
<path d="M0 0 C-3.19990508 2.74277578 -6.00499382 4.6302836 -10 6 C-10.66 5.34 -11.32 4.68 -12 4 C-10.56988027 3.13353333 -9.13059381 2.28218171 -7.6875 1.4375 C-6.48673828 0.72400391 -6.48673828 0.72400391 -5.26171875 -0.00390625 C-3 -1 -3 -1 0 0 Z " fill="#262626" transform="translate(369,441)"/>
<path d="M0 0 C2.09715785 3.14573677 2.52004559 5.01456251 3.125 8.6875 C3.29257812 9.68136719 3.46015625 10.67523438 3.6328125 11.69921875 C3.75398438 12.45847656 3.87515625 13.21773437 4 14 C3.34 14 2.68 14 2 14 C0.66416101 9.15758367 -0.25328119 5.06562383 0 0 Z " fill="#1A1A1A" transform="translate(467,202)"/>
<path d="M0 0 C3.99455527 0.61454696 6.74466336 2.70646737 10 5 C9.67 5.99 9.34 6.98 9 8 C7.49460339 7.05016642 5.99579653 6.08988109 4.5 5.125 C3.6646875 4.59132813 2.829375 4.05765625 1.96875 3.5078125 C1.3190625 3.01023437 0.669375 2.51265625 0 2 C0 1.34 0 0.68 0 0 Z " fill="#232323" transform="translate(371,68)"/>
<path d="M0 0 C2 3 2 3 1.5390625 5.48046875 C1.23742188 6.37378906 0.93578125 7.26710937 0.625 8.1875 C0.32851563 9.08855469 0.03203125 9.98960937 -0.2734375 10.91796875 C-0.63308594 11.94857422 -0.63308594 11.94857422 -1 13 C-2.53690745 10.58959839 -3.09752136 9.49917715 -2.5390625 6.640625 C-2.23742188 5.85171875 -1.93578125 5.0628125 -1.625 4.25 C-1.32851563 3.45078125 -1.03203125 2.6515625 -0.7265625 1.828125 C-0.48679688 1.22484375 -0.24703125 0.6215625 0 0 Z " fill="#2F2F2F" transform="translate(46,178)"/>
<path d="M0 0 C2.76544722 3.45680903 4.84921278 7.14341602 7 11 C5.1875 10.8125 5.1875 10.8125 3 10 C0.37665094 6.62712264 -0.36372697 4.24348127 0 0 Z " fill="#222222" transform="translate(63,360)"/>
<path d="M0 0 C0.33 0 0.66 0 1 0 C0.53199289 4.05606165 0.12046792 7.46588679 -2 11 C-2.99 10.67 -3.98 10.34 -5 10 C-3.35 6.7 -1.7 3.4 0 0 Z " fill="#272727" transform="translate(454,352)"/>
<path d="M0 0 C-1 2 -1 2 -3.28515625 2.8515625 C-4.20167969 3.10679688 -5.11820313 3.36203125 -6.0625 3.625 C-7.44115234 4.01558594 -7.44115234 4.01558594 -8.84765625 4.4140625 C-9.55792969 4.60742188 -10.26820313 4.80078125 -11 5 C-11 4.01 -11 3.02 -11 2 C-7.17679443 0.57741188 -4.08718695 -0.24042276 0 0 Z " fill="#242424" transform="translate(194,42)"/>
<path d="M0 0 C6.625 -0.25 6.625 -0.25 10 2 C9.67 2.33 9.34 2.66 9 3 C7.47480724 2.91062197 5.95318071 2.75462854 4.4375 2.5625 C3.19806641 2.40974609 3.19806641 2.40974609 1.93359375 2.25390625 C1.29550781 2.17011719 0.65742188 2.08632813 0 2 C0 1.34 0 0.68 0 0 Z " fill="#2B2B2B" transform="translate(225,470)"/>
<path d="M0 0 C0 0.66 0 1.32 0 2 C-1.6796875 3.2890625 -1.6796875 3.2890625 -3.875 4.625 C-4.95394531 5.29402344 -4.95394531 5.29402344 -6.0546875 5.9765625 C-8 7 -8 7 -10 7 C-10 6.34 -10 5.68 -10 5 C-8.3203125 3.7109375 -8.3203125 3.7109375 -6.125 2.375 C-5.40570313 1.92898438 -4.68640625 1.48296875 -3.9453125 1.0234375 C-2 0 -2 0 0 0 Z " fill="#141414" transform="translate(385,436)"/>
<path d="M0 0 C2.15546298 3.23319447 2.68074747 5.16896958 3 9 C2.01 10.485 2.01 10.485 1 12 C0.63896464 10.18885568 0.28634496 8.37603177 -0.0625 6.5625 C-0.25972656 5.55316406 -0.45695312 4.54382813 -0.66015625 3.50390625 C-0.77230469 2.67761719 -0.88445312 1.85132813 -1 1 C-0.67 0.67 -0.34 0.34 0 0 Z " fill="#313131" transform="translate(462,182)"/>
<path d="M0 0 C0.66 0 1.32 0 2 0 C3.32 3.3 4.64 6.6 6 10 C5.01 9.67 4.02 9.34 3 9 C2.05078125 6.93359375 2.05078125 6.93359375 1.3125 4.4375 C1.06113281 3.61121094 0.80976563 2.78492188 0.55078125 1.93359375 C0.36902344 1.29550781 0.18726563 0.65742188 0 0 Z " fill="#191919" transform="translate(453,163)"/>
<path d="M0 0 C0 0.66 0 1.32 0 2 C-1.4609375 3.2890625 -1.4609375 3.2890625 -3.375 4.625 C-4.00148438 5.07101563 -4.62796875 5.51703125 -5.2734375 5.9765625 C-7 7 -7 7 -9 7 C-7.4576387 2.93377477 -4.5679954 0 0 0 Z " fill="#191919" transform="translate(129,73)"/>
<path d="M0 0 C-1.38009621 3.33523252 -2.84950652 5.18607951 -6 7 C-6.99 6.67 -7.98 6.34 -9 6 C-7.8803014 4.99406757 -6.7540588 3.9954151 -5.625 3 C-4.68527344 2.1646875 -4.68527344 2.1646875 -3.7265625 1.3125 C-2 0 -2 0 0 0 Z " fill="#1E1E1E" transform="translate(106,84)"/>
<path d="M0 0 C0 0.66 0 1.32 0 2 C-3.61973402 3.31626692 -6.09567131 4 -10 4 C-10 3.34 -10 2.68 -10 2 C-3.375 0 -3.375 0 0 0 Z " fill="#1B1B1B" transform="translate(319,462)"/>
<path d="M0 0 C4.39158329 1.4638611 4.87947433 3.97831338 7 8 C6.01 8 5.02 8 4 8 C0 2.74285714 0 2.74285714 0 0 Z " fill="#121212" transform="translate(64,375)"/>
<path d="M0 0 C4.39158329 1.4638611 4.87947433 3.97831338 7 8 C6.01 8 5.02 8 4 8 C0 2.74285714 0 2.74285714 0 0 Z " fill="#141414" transform="translate(68,371)"/>
<path d="M0 0 C0.66 0.33 1.32 0.66 2 1 C0.35 3.64 -1.3 6.28 -3 9 C-3.33 8.01 -3.66 7.02 -4 6 C-2.0625 2.8125 -2.0625 2.8125 0 0 Z " fill="#191919" transform="translate(449,363)"/>
<path d="M0 0 C0.66 0 1.32 0 2 0 C1.67 3.3 1.34 6.6 1 10 C0.34 9.34 -0.32 8.68 -1 8 C-0.96712417 5.27130593 -0.43602229 2.7033382 0 0 Z " fill="#2F2F2F" transform="translate(466,302)"/>
<path d="M0 0 C0.99 0.33 1.98 0.66 3 1 C0.75 3.5625 0.75 3.5625 -2 6 C-4.3125 5.8125 -4.3125 5.8125 -6 5 C-1.60546875 0.99609375 -1.60546875 0.99609375 0 0 Z " fill="#252525" transform="translate(118,79)"/>
<path d="M0 0 C2.32472205 2.85306797 3.7508258 5.54074837 5 9 C4.01 9 3.02 9 2 9 C0.14223235 5.86501708 -0.20140476 3.62528568 0 0 Z " fill="#282828" transform="translate(53,353)"/>
<path d="M0 0 C0.99 0.33 1.98 0.66 3 1 C-0.465 3.97 -0.465 3.97 -4 7 C-4 4 -4 4 -2 1.8125 C-1.34 1.214375 -0.68 0.61625 0 0 Z " fill="#141414" transform="translate(96,91)"/>
<path d="M0 0 C2.31 0.33 4.62 0.66 7 1 C7.33 1.99 7.66 2.98 8 4 C3.545 3.01 3.545 3.01 -1 2 C-0.67 1.34 -0.34 0.68 0 0 Z " fill="#353535" transform="translate(313,36)"/>
<path d="M0 0 C0.33 0 0.66 0 1 0 C0.4140625 6.15234375 0.4140625 6.15234375 0 8 C-0.99 8.495 -0.99 8.495 -2 9 C-2.25 3.375 -2.25 3.375 0 0 Z " fill="#202020" transform="translate(36,195)"/>
<path d="M0 0 C3.36720387 1.39332574 4.9859524 2.9789286 7 6 C4 6 4 6 1.8125 4.125 C0 2 0 2 0 0 Z " fill="#161616" transform="translate(416,98)"/>
<path d="M0 0 C3.465 1.98 3.465 1.98 7 4 C7 4.99 7 5.98 7 7 C1.125 3.375 1.125 3.375 0 0 Z " fill="#141414" transform="translate(381,74)"/>
<path d="M0 0 C-2.96687001 1.64826111 -5.65626525 2.44271087 -9 3 C-8.67 2.01 -8.34 1.02 -8 0 C-5.13822943 -1.43088528 -3.06624227 -0.59991697 0 0 Z " fill="#383838" transform="translate(202,41)"/>
<path d="M0 0 C-0.66 0 -1.32 0 -2 0 C-2 0.66 -2 1.32 -2 2 C-4.31 2 -6.62 2 -9 2 C-9 1.34 -9 0.68 -9 0 C-5.62182575 -0.84454356 -3.32534757 -1.10844919 0 0 Z " fill="#2C2C2C" transform="translate(227,30)"/>
<path d="M0 0 C0.99 0.33 1.98 0.66 3 1 C1.25 3.0625 1.25 3.0625 -1 5 C-3.25 4.75 -3.25 4.75 -5 4 C-2.6875 1.9375 -2.6875 1.9375 0 0 Z " fill="#242424" transform="translate(385,427)"/>
<path d="M0 0 C0.66 0 1.32 0 2 0 C2.33 2.97 2.66 5.94 3 9 C0.23776722 6.23776722 0.42143709 3.79293383 0 0 Z " fill="#1C1C1C" transform="translate(36,311)"/>
<path d="M0 0 C0.66 0.66 1.32 1.32 2 2 C1.625 5.625 1.625 5.625 1 9 C0.34 8.67 -0.32 8.34 -1 8 C-0.67 5.36 -0.34 2.72 0 0 Z " fill="#2D2D2D" transform="translate(40,197)"/>
<path d="M0 0 C0.66 0.33 1.32 0.66 2 1 C-0.475 4.465 -0.475 4.465 -3 8 C-3.33 7.01 -3.66 6.02 -4 5 C-2.0625 2.3125 -2.0625 2.3125 0 0 Z " fill="#111111" transform="translate(68,125)"/>
<path d="M0 0 C3.37462715 0.54723683 5.08235 1.0549 8 3 C4.37673261 4.2077558 3.35853631 3.54311128 0 2 C0 1.34 0 0.68 0 0 Z " fill="#242424" transform="translate(312,41)"/>
</svg>
